<svg xmlns="http://www.w3.org/2000/svg" xmlns:xlink="http://www.w3.org/1999/xlink" width="500" zoomAndPan="magnify" viewBox="0 0 375 374.999991" height="500" preserveAspectRatio="xMidYMid meet" version="1.0"><path fill="#caddff" d="M 35.246094 128.402344 C 28.082031 144.300781 17.472656 174.738281 21.738281 212.59375 C 27.207031 261.164062 54.289062 299.457031 80.632812 320.976562 C 168.046875 392.375 328.070312 346.25 349.261719 278.992188 C 353.105469 266.789062 352.023438 255.019531 350.695312 240.539062 C 346.464844 194.480469 324.183594 180.789062 309.195312 131.886719 C 295.558594 87.378906 309.003906 82.371094 296.25 62.585938 C 268.589844 19.664062 188.734375 17.503906 133.789062 38.078125 C 112.683594 45.984375 61.472656 70.226562 35.246094 128.402344 " fill-opacity="1" fill-rule="nonzero"/><path fill="#ffffff" d="M 301.558594 77.851562 L 353.320312 77.851562 L 353.320312 174.28125 L 301.558594 174.28125 L 301.558594 77.851562 " fill-opacity="1" fill-rule="nonzero"/><path fill="#000000" d="M 353.324219 174.882812 C 353.011719 174.882812 352.753906 174.625 352.753906 174.3125 L 352.753906 77.894531 C 352.753906 77.582031 353.011719 77.328125 353.324219 77.328125 C 353.636719 77.328125 353.890625 77.582031 353.890625 77.894531 L 353.890625 174.3125 C 353.890625 174.625 353.636719 174.882812 353.324219 174.882812 " fill-opacity="1" fill-rule="nonzero"/><path fill="#caddff" d="M 57.191406 66.347656 L 197.460938 66.347656 L 197.460938 174.28125 L 57.191406 174.28125 L 57.191406 66.347656 " fill-opacity="1" fill-rule="nonzero"/><path fill="#99b9ff" d="M 20.875 77.941406 L 57.015625 77.941406 C 57.195312 77.941406 57.339844 77.796875 57.339844 77.617188 L 57.339844 66.515625 C 57.339844 66.335938 57.195312 66.1875 57.015625 66.1875 L 46.070312 66.195312 C 46.027344 66.195312 45.980469 66.203125 45.941406 66.222656 L 20.742188 77.320312 C 20.421875 77.464844 20.523438 77.941406 20.875 77.941406 " fill-opacity="1" fill-rule="nonzero"/><path fill="#99b9ff" d="M 301.25 77.851562 L 357.515625 77.851562 C 357.808594 77.851562 357.886719 77.453125 357.617188 77.339844 L 331.199219 66.101562 L 301.25 66.097656 L 301.25 77.851562 " fill-opacity="1" fill-rule="nonzero"/><path fill="#000000" d="M 357.460938 78.417969 L 332.234375 78.417969 C 331.921875 78.417969 331.667969 78.164062 331.667969 77.851562 C 331.667969 77.539062 331.921875 77.28125 332.234375 77.28125 L 356.035156 77.28125 L 331.085938 66.667969 L 306.132812 66.664062 C 305.820312 66.664062 305.566406 66.414062 305.566406 66.097656 C 305.566406 65.78125 305.820312 65.53125 306.132812 65.53125 L 331.316406 65.53125 L 331.421875 65.578125 L 357.792969 76.796875 C 358.167969 76.953125 358.371094 77.34375 358.292969 77.742188 C 358.210938 78.140625 357.871094 78.417969 357.460938 78.417969 " fill-opacity="1" fill-rule="nonzero"/><path fill="#99b9ff" d="M 231.066406 19.3125 L 128.84375 19.3125 L 207.351562 54.9375 L 308.152344 54.9375 C 308.480469 54.9375 308.582031 54.484375 308.277344 54.347656 L 231.066406 19.3125 " fill-opacity="1" fill-rule="nonzero"/><path fill="#000000" d="M 308.390625 55.503906 L 303.972656 55.503906 C 303.660156 55.503906 303.402344 55.25 303.402344 54.933594 C 303.402344 54.625 303.660156 54.367188 303.972656 54.367188 L 306.953125 54.367188 L 230.945312 19.878906 L 136.066406 19.878906 C 135.753906 19.878906 135.496094 19.625 135.496094 19.308594 C 135.496094 18.996094 135.753906 18.742188 136.066406 18.742188 L 231.195312 18.742188 L 231.304688 18.792969 L 308.730469 53.929688 C 309.085938 54.089844 309.277344 54.46875 309.195312 54.855469 C 309.113281 55.238281 308.78125 55.503906 308.390625 55.503906 " fill-opacity="1" fill-rule="nonzero"/><path fill="#ffffff" d="M 207.558594 54.964844 L 49.410156 54.964844 L 128.730469 19.3125 L 207.558594 54.964844 " fill-opacity="1" fill-rule="nonzero"/><path fill="#000000" d="M 52.265625 54.351562 L 204.71875 54.351562 L 128.726562 19.984375 Z M 207.558594 55.574219 L 49.410156 55.574219 C 49.125 55.574219 48.875 55.375 48.8125 55.089844 C 48.753906 54.8125 48.898438 54.523438 49.160156 54.40625 L 128.480469 18.753906 C 128.636719 18.683594 128.820312 18.683594 128.980469 18.753906 L 207.808594 54.40625 C 208.070312 54.527344 208.214844 54.8125 208.15625 55.09375 C 208.09375 55.375 207.847656 55.574219 207.558594 55.574219 " fill-opacity="1" fill-rule="nonzero"/><path fill="#caddff" d="M 301.53125 66.234375 L 197.503906 66.234375 L 197.503906 174.089844 L 301.53125 174.089844 L 301.53125 66.234375 " fill-opacity="1" fill-rule="nonzero"/><path fill="#ffffff" d="M 93.699219 174.28125 L 83.621094 174.28125 L 83.621094 66.347656 L 93.699219 66.347656 L 93.699219 174.28125 " fill-opacity="1" fill-rule="nonzero"/><path fill="#ffffff" d="M 119.722656 174.28125 L 109.640625 174.28125 L 109.640625 66.347656 L 119.722656 66.347656 L 119.722656 174.28125 " fill-opacity="1" fill-rule="nonzero"/><path fill="#ffffff" d="M 145.742188 174.28125 L 135.660156 174.28125 L 135.660156 66.347656 L 145.742188 66.347656 L 145.742188 174.28125 " fill-opacity="1" fill-rule="nonzero"/><path fill="#ffffff" d="M 171.761719 174.28125 L 161.683594 174.28125 L 161.683594 66.347656 L 171.761719 66.347656 L 171.761719 174.28125 " fill-opacity="1" fill-rule="nonzero"/><path fill="#ffffff" d="M 197.460938 174.28125 L 187.378906 174.28125 L 187.378906 66.347656 L 197.460938 66.347656 L 197.460938 174.28125 " fill-opacity="1" fill-rule="nonzero"/><path fill="#ffffff" d="M 67.679688 174.28125 L 57.601562 174.28125 L 57.601562 66.347656 L 67.679688 66.347656 L 67.679688 174.28125 " fill-opacity="1" fill-rule="nonzero"/><path fill="#99b9ff" d="M 223.480469 174.28125 L 213.398438 174.28125 L 213.398438 66.347656 L 223.480469 66.347656 L 223.480469 174.28125 " fill-opacity="1" fill-rule="nonzero"/><path fill="#99b9ff" d="M 249.5 174.28125 L 239.421875 174.28125 L 239.421875 66.347656 L 249.5 66.347656 L 249.5 174.28125 " fill-opacity="1" fill-rule="nonzero"/><path fill="#99b9ff" d="M 275.523438 174.28125 L 265.441406 174.28125 L 265.441406 66.347656 L 275.523438 66.347656 L 275.523438 174.28125 " fill-opacity="1" fill-rule="nonzero"/><path fill="#99b9ff" d="M 301.542969 174.28125 L 291.460938 174.28125 L 291.460938 66.347656 L 301.542969 66.347656 L 301.542969 174.28125 " fill-opacity="1" fill-rule="nonzero"/><path fill="#99b9ff" d="M 301.535156 55.011719 L 197.507812 55.011719 L 197.507812 66.367188 L 301.535156 66.367188 L 301.535156 55.011719 " fill-opacity="1" fill-rule="nonzero"/><path fill="#000000" d="M 198.113281 65.753906 L 300.917969 65.753906 L 300.917969 55.625 L 198.113281 55.625 Z M 301.53125 66.980469 L 197.503906 66.980469 C 197.164062 66.980469 196.890625 66.703125 196.890625 66.367188 L 196.890625 55.011719 C 196.890625 54.671875 197.164062 54.398438 197.503906 54.398438 L 301.53125 54.398438 C 301.867188 54.398438 302.140625 54.671875 302.140625 55.011719 L 302.140625 66.367188 C 302.140625 66.703125 301.867188 66.980469 301.53125 66.980469 " fill-opacity="1" fill-rule="nonzero"/><path fill="#ffffff" d="M 161.683594 174.28125 L 197.460938 174.28125 L 197.460938 198.738281 L 161.683594 198.738281 L 161.683594 174.28125 " fill-opacity="1" fill-rule="nonzero"/><path fill="#000000" d="M 162.292969 198.125 L 196.847656 198.125 L 196.847656 174.894531 L 162.292969 174.894531 Z M 197.460938 199.347656 L 161.683594 199.347656 C 161.34375 199.347656 161.070312 199.074219 161.070312 198.738281 L 161.070312 174.28125 C 161.070312 173.945312 161.34375 173.671875 161.683594 173.671875 L 197.460938 173.671875 C 197.796875 173.671875 198.070312 173.945312 198.070312 174.28125 L 198.070312 198.738281 C 198.070312 199.074219 197.796875 199.347656 197.460938 199.347656 " fill-opacity="1" fill-rule="nonzero"/><path fill="#ffffff" d="M 301.496094 198.652344 L 353.34375 198.652344 L 353.34375 174.28125 L 301.496094 174.28125 L 301.496094 198.652344 " fill-opacity="1" fill-rule="nonzero"/><path fill="#000000" d="M 302.109375 198.039062 L 352.734375 198.039062 L 352.734375 174.890625 L 302.109375 174.890625 Z M 353.34375 199.261719 L 301.5 199.261719 C 301.160156 199.261719 300.886719 198.988281 300.886719 198.652344 L 300.886719 174.28125 C 300.886719 173.945312 301.160156 173.667969 301.5 173.667969 L 353.34375 173.667969 C 353.679688 173.667969 353.957031 173.945312 353.957031 174.28125 L 353.957031 198.652344 C 353.957031 198.988281 353.679688 199.261719 353.34375 199.261719 " fill-opacity="1" fill-rule="nonzero"/><path fill="#ffffff" d="M 25.328125 77.851562 L 57.742188 77.851562 L 57.742188 174.191406 L 25.328125 174.191406 L 25.328125 77.851562 " fill-opacity="1" fill-rule="nonzero"/><path fill="#000000" d="M 25.328125 174.414062 C 25.015625 174.414062 24.761719 174.15625 24.761719 173.84375 L 24.761719 78.203125 C 24.761719 77.890625 25.015625 77.636719 25.328125 77.636719 C 25.640625 77.636719 25.894531 77.890625 25.894531 78.203125 L 25.894531 173.84375 C 25.894531 174.15625 25.640625 174.414062 25.328125 174.414062 " fill-opacity="1" fill-rule="nonzero"/><path fill="#ffffff" d="M 197.507812 55.011719 L 57.601562 55.011719 L 57.601562 66.367188 L 197.507812 66.367188 L 197.507812 55.011719 " fill-opacity="1" fill-rule="nonzero"/><path fill="#000000" d="M 58.210938 65.753906 L 196.890625 65.753906 L 196.890625 55.625 L 58.210938 55.625 Z M 197.503906 66.980469 L 57.601562 66.980469 C 57.261719 66.980469 56.988281 66.703125 56.988281 66.367188 L 56.988281 55.011719 C 56.988281 54.671875 57.261719 54.398438 57.601562 54.398438 L 197.503906 54.398438 C 197.839844 54.398438 198.113281 54.671875 198.113281 55.011719 L 198.113281 66.367188 C 198.113281 66.703125 197.839844 66.980469 197.503906 66.980469 " fill-opacity="1" fill-rule="nonzero"/><path fill="#ffffff" d="M 25.351562 198.722656 L 57.746094 198.722656 L 57.746094 174.335938 L 25.351562 174.335938 L 25.351562 198.722656 " fill-opacity="1" fill-rule="nonzero"/><path fill="#000000" d="M 25.960938 198.109375 L 57.136719 198.109375 L 57.136719 174.945312 L 25.960938 174.945312 Z M 57.746094 199.332031 L 25.351562 199.332031 C 25.015625 199.332031 24.742188 199.058594 24.742188 198.722656 L 24.742188 174.335938 C 24.742188 173.996094 25.015625 173.722656 25.351562 173.722656 L 57.746094 173.722656 C 58.085938 173.722656 58.355469 173.996094 58.355469 174.335938 L 58.355469 198.722656 C 58.355469 199.058594 58.085938 199.332031 57.746094 199.332031 " fill-opacity="1" fill-rule="nonzero"/><path fill="#ffffff" d="M 57.890625 174.28125 L 93.683594 174.28125 L 93.683594 198.738281 L 57.890625 198.738281 L 57.890625 174.28125 " fill-opacity="1" fill-rule="nonzero"/><path fill="#000000" d="M 58.5 198.125 L 93.074219 198.125 L 93.074219 174.894531 L 58.5 174.894531 Z M 93.683594 199.347656 L 57.890625 199.347656 C 57.550781 199.347656 57.277344 199.074219 57.277344 198.738281 L 57.277344 174.28125 C 57.277344 173.945312 57.550781 173.671875 57.890625 173.671875 L 93.683594 173.671875 C 94.023438 173.671875 94.296875 173.945312 94.296875 174.28125 L 94.296875 198.738281 C 94.296875 199.074219 94.023438 199.347656 93.683594 199.347656 " fill-opacity="1" fill-rule="nonzero"/><path fill="#ffffff" d="M 93.886719 174.28125 L 161.683594 174.28125 L 161.683594 198.738281 L 93.886719 198.738281 L 93.886719 174.28125 " fill-opacity="1" fill-rule="nonzero"/><path fill="#000000" d="M 94.5 198.125 L 161.070312 198.125 L 161.070312 174.894531 L 94.5 174.894531 Z M 161.683594 199.347656 L 93.886719 199.347656 C 93.550781 199.347656 93.277344 199.074219 93.277344 198.738281 L 93.277344 174.28125 C 93.277344 173.945312 93.550781 173.671875 93.886719 173.671875 L 161.683594 173.671875 C 162.019531 173.671875 162.292969 173.945312 162.292969 174.28125 L 162.292969 198.738281 C 162.292969 199.074219 162.019531 199.347656 161.683594 199.347656 " fill-opacity="1" fill-rule="nonzero"/><path fill="#000000" d="M 45.332031 78.511719 L 20.65625 78.511719 C 20.253906 78.511719 19.910156 78.234375 19.828125 77.839844 C 19.746094 77.445312 19.945312 77.054688 20.316406 76.894531 L 45.882812 65.628906 L 52.476562 65.625 C 52.789062 65.625 53.046875 65.878906 53.046875 66.191406 C 53.046875 66.507812 52.792969 66.761719 52.476562 66.761719 L 46.121094 66.765625 L 22.035156 77.375 L 45.332031 77.375 C 45.648438 77.375 45.902344 77.628906 45.902344 77.945312 C 45.902344 78.257812 45.648438 78.511719 45.332031 78.511719 " fill-opacity="1" fill-rule="nonzero"/><path fill="#caddff" d="M 321.386719 111.289062 L 311.308594 111.289062 L 311.308594 91.511719 L 321.386719 91.511719 L 321.386719 111.289062 " fill-opacity="1" fill-rule="nonzero"/><path fill="#caddff" d="M 321.386719 153.15625 L 311.308594 153.15625 L 311.308594 133.378906 L 321.386719 133.378906 L 321.386719 153.15625 " fill-opacity="1" fill-rule="nonzero"/><path fill="#caddff" d="M 45.804688 111.289062 L 35.726562 111.289062 L 35.726562 91.511719 L 45.804688 91.511719 L 45.804688 111.289062 " fill-opacity="1" fill-rule="nonzero"/><path fill="#caddff" d="M 45.804688 153.15625 L 35.726562 153.15625 L 35.726562 133.378906 L 45.804688 133.378906 L 45.804688 153.15625 " fill-opacity="1" fill-rule="nonzero"/><path fill="#caddff" d="M 342.613281 111.285156 L 332.535156 111.285156 L 332.535156 91.507812 L 342.613281 91.507812 L 342.613281 111.285156 " fill-opacity="1" fill-rule="nonzero"/><path fill="#caddff" d="M 342.613281 153.15625 L 332.535156 153.15625 L 332.535156 133.378906 L 342.613281 133.378906 L 342.613281 153.15625 " fill-opacity="1" fill-rule="nonzero"/><path fill="#99b9ff" d="M 197.609375 174.28125 L 301.613281 174.28125 L 301.613281 198.738281 L 197.609375 198.738281 L 197.609375 174.28125 " fill-opacity="1" fill-rule="nonzero"/><path fill="#000000" d="M 198.21875 198.128906 L 301.003906 198.128906 L 301.003906 174.894531 L 198.21875 174.894531 Z M 301.613281 199.351562 L 197.609375 199.351562 C 197.273438 199.351562 196.996094 199.074219 196.996094 198.738281 L 196.996094 174.285156 C 196.996094 173.945312 197.273438 173.671875 197.609375 173.671875 L 301.613281 173.671875 C 301.949219 173.671875 302.226562 173.945312 302.226562 174.285156 L 302.226562 198.738281 C 302.226562 199.074219 301.949219 199.351562 301.613281 199.351562 " fill-opacity="1" fill-rule="nonzero"/><path fill="#99b9ff" d="M 154.492188 179.921875 L 137.765625 179.921875 C 137.429688 179.921875 137.15625 179.648438 137.15625 179.308594 C 137.15625 178.972656 137.429688 178.699219 137.765625 178.699219 L 154.492188 178.699219 C 154.828125 178.699219 155.101562 178.972656 155.101562 179.308594 C 155.101562 179.648438 154.828125 179.921875 154.492188 179.921875 " fill-opacity="1" fill-rule="nonzero"/><path fill="#99b9ff" d="M 154.492188 184.808594 L 129.667969 184.808594 C 129.328125 184.808594 129.058594 184.535156 129.058594 184.199219 C 129.058594 183.859375 129.328125 183.585938 129.667969 183.585938 L 154.492188 183.585938 C 154.828125 183.585938 155.101562 183.859375 155.101562 184.199219 C 155.101562 184.535156 154.828125 184.808594 154.492188 184.808594 " fill-opacity="1" fill-rule="nonzero"/><path fill="#99b9ff" d="M 154.492188 189.695312 L 121.4375 189.695312 C 121.097656 189.695312 120.824219 189.421875 120.824219 189.085938 C 120.824219 188.746094 121.097656 188.472656 121.4375 188.472656 L 154.492188 188.472656 C 154.828125 188.472656 155.101562 188.746094 155.101562 189.085938 C 155.101562 189.421875 154.828125 189.695312 154.492188 189.695312 " fill-opacity="1" fill-rule="nonzero"/><path fill="#99b9ff" d="M 154.492188 194.582031 L 100.292969 194.582031 C 99.953125 194.582031 99.679688 194.308594 99.679688 193.972656 C 99.679688 193.632812 99.953125 193.359375 100.292969 193.359375 L 154.492188 193.359375 C 154.828125 193.359375 155.101562 193.632812 155.101562 193.972656 C 155.101562 194.308594 154.828125 194.582031 154.492188 194.582031 " fill-opacity="1" fill-rule="nonzero"/><path fill="#000000" d="M 239.421875 89.957031 C 239.105469 89.957031 238.855469 89.703125 238.855469 89.390625 L 238.855469 73.390625 C 238.855469 73.082031 239.105469 72.824219 239.421875 72.824219 C 239.734375 72.824219 239.988281 73.082031 239.988281 73.390625 L 239.988281 89.390625 C 239.988281 89.703125 239.734375 89.957031 239.421875 89.957031 " fill-opacity="1" fill-rule="nonzero"/><path fill="#000000" d="M 265.441406 114.539062 C 265.128906 114.539062 264.875 114.285156 264.875 113.972656 L 264.875 72.660156 C 264.875 72.347656 265.128906 72.09375 265.441406 72.09375 C 265.753906 72.09375 266.011719 72.347656 266.011719 72.660156 L 266.011719 113.972656 C 266.011719 114.285156 265.753906 114.539062 265.441406 114.539062 " fill-opacity="1" fill-rule="nonzero"/><path fill="#000000" d="M 275.519531 162.09375 C 275.207031 162.09375 274.957031 161.839844 274.957031 161.527344 L 274.957031 83.871094 C 274.957031 83.554688 275.207031 83.300781 275.519531 83.300781 C 275.835938 83.300781 276.089844 83.554688 276.089844 83.871094 L 276.089844 161.527344 C 276.089844 161.839844 275.835938 162.09375 275.519531 162.09375 " fill-opacity="1" fill-rule="nonzero"/><path fill="#000000" d="M 197.457031 170.554688 C 197.144531 170.554688 196.890625 170.300781 196.890625 169.984375 L 196.890625 71.203125 C 196.890625 70.886719 197.144531 70.632812 197.457031 70.632812 C 197.773438 70.632812 198.027344 70.886719 198.027344 71.203125 L 198.027344 169.984375 C 198.027344 170.300781 197.773438 170.554688 197.457031 170.554688 " fill-opacity="1" fill-rule="nonzero"/><path fill="#000000" d="M 57.601562 170.851562 C 57.285156 170.851562 57.03125 170.597656 57.03125 170.285156 L 57.03125 70.488281 C 57.03125 70.175781 57.285156 69.921875 57.601562 69.921875 C 57.914062 69.921875 58.167969 70.175781 58.167969 70.488281 L 58.167969 170.285156 C 58.167969 170.597656 57.914062 170.851562 57.601562 170.851562 " fill-opacity="1" fill-rule="nonzero"/><path fill="#000000" d="M 301.542969 170.378906 C 301.230469 170.378906 300.976562 170.125 300.976562 169.8125 L 300.976562 70.988281 C 300.976562 70.671875 301.230469 70.417969 301.542969 70.417969 C 301.859375 70.417969 302.109375 70.671875 302.109375 70.988281 L 302.109375 169.8125 C 302.109375 170.125 301.859375 170.378906 301.542969 170.378906 " fill-opacity="1" fill-rule="nonzero"/><path fill="#5479f7" d="M 30.113281 248.398438 C 14.53125 234.03125 22.597656 224.761719 22.597656 224.761719 C 22.597656 224.761719 29.554688 213.480469 53.980469 228.226562 C 78.40625 242.976562 102.046875 237.496094 107.394531 235.285156 C 112.738281 233.074219 131.421875 219.175781 141.949219 218.394531 C 147.804688 217.960938 154.816406 222.367188 148.664062 234.28125 C 135.945312 258.914062 101.402344 261.722656 101.402344 261.722656 C 101.402344 261.722656 84.65625 264.871094 67.457031 261.820312 C 67.457031 261.820312 45.691406 262.769531 30.113281 248.398438 " fill-opacity="1" fill-rule="nonzero"/><path fill="#ffffff" d="M 70.542969 251.34375 L 79.953125 258.117188 L 77.578125 263.300781 L 68.738281 257.234375 L 70.542969 251.34375 " fill-opacity="1" fill-rule="nonzero"/><path fill="#000000" d="M 69.453125 256.984375 L 77.324219 262.386719 L 79.1875 258.320312 L 70.878906 252.335938 Z M 77.578125 263.914062 C 77.453125 263.914062 77.332031 263.875 77.230469 263.804688 L 68.394531 257.738281 C 68.171875 257.585938 68.078125 257.308594 68.15625 257.054688 L 69.960938 251.164062 C 70.015625 250.976562 70.160156 250.828125 70.347656 250.761719 C 70.535156 250.699219 70.742188 250.730469 70.902344 250.847656 L 80.3125 257.621094 C 80.546875 257.789062 80.632812 258.105469 80.511719 258.371094 L 78.132812 263.554688 C 78.058594 263.71875 77.914062 263.84375 77.738281 263.890625 C 77.6875 263.90625 77.628906 263.914062 77.578125 263.914062 " fill-opacity="1" fill-rule="nonzero"/><path fill="#ffffff" d="M 72.917969 257.234375 L 74.378906 255.753906 C 74.90625 255.222656 75.730469 255.121094 76.371094 255.507812 L 77.832031 256.472656 L 78.480469 254.84375 C 78.722656 254.320312 79.316406 254.0625 79.867188 254.246094 C 83.203125 255.363281 93.859375 260.324219 97.566406 263.074219 C 101.953125 266.324219 98.839844 273.554688 91.191406 272.820312 C 85.128906 272.234375 76.847656 265.472656 73.671875 262.691406 C 73.046875 262.140625 73.203125 261.132812 73.960938 260.800781 L 73.96875 260.796875 L 72.738281 259.296875 C 72.292969 258.65625 72.367188 257.789062 72.917969 257.234375 " fill-opacity="1" fill-rule="nonzero"/><path fill="#000000" d="M 73.230469 258.929688 L 74.441406 260.410156 C 74.566406 260.558594 74.609375 260.757812 74.5625 260.949219 C 74.515625 261.132812 74.382812 261.289062 74.203125 261.363281 C 73.96875 261.464844 73.914062 261.675781 73.902344 261.761719 C 73.886719 261.84375 73.878906 262.058594 74.074219 262.230469 C 77.285156 265.042969 85.386719 271.644531 91.25 272.210938 C 95.511719 272.625 97.902344 270.46875 98.660156 268.503906 C 99.371094 266.648438 98.8125 264.757812 97.203125 263.566406 C 93.550781 260.855469 82.9375 255.917969 79.671875 254.828125 C 79.417969 254.742188 79.148438 254.859375 79.035156 255.101562 L 78.398438 256.699219 C 78.332031 256.871094 78.191406 257.003906 78.015625 257.058594 C 77.839844 257.113281 77.648438 257.085938 77.496094 256.984375 L 76.03125 256.015625 C 75.652344 255.789062 75.144531 255.851562 74.816406 256.183594 L 73.351562 257.664062 L 72.917969 257.234375 L 73.351562 257.664062 C 73.015625 258.003906 72.964844 258.535156 73.230469 258.929688 Z M 92.292969 273.484375 C 91.917969 273.484375 91.535156 273.464844 91.132812 273.425781 C 84.917969 272.828125 76.570312 266.039062 73.269531 263.148438 C 72.816406 262.753906 72.601562 262.167969 72.691406 261.574219 C 72.742188 261.242188 72.886719 260.941406 73.097656 260.695312 L 72.265625 259.683594 C 72.257812 259.671875 72.246094 259.660156 72.238281 259.644531 C 71.625 258.765625 71.726562 257.570312 72.480469 256.804688 L 73.945312 255.324219 C 74.671875 254.585938 75.800781 254.449219 76.6875 254.984375 L 77.542969 255.550781 L 77.914062 254.621094 C 78.300781 253.78125 79.214844 253.386719 80.058594 253.667969 C 83.472656 254.808594 94.121094 259.757812 97.933594 262.582031 C 99.96875 264.09375 100.703125 266.589844 99.800781 268.941406 C 98.964844 271.117188 96.519531 273.484375 92.292969 273.484375 " fill-opacity="1" fill-rule="nonzero"/><path fill="#000000" d="M 82.851562 266.085938 C 82.761719 266.085938 82.675781 266.0625 82.589844 266.023438 C 82.285156 265.878906 82.15625 265.515625 82.300781 265.210938 L 84.777344 259.996094 C 84.921875 259.691406 85.285156 259.5625 85.589844 259.707031 C 85.898438 259.855469 86.027344 260.21875 85.882812 260.523438 L 83.402344 265.734375 C 83.300781 265.957031 83.078125 266.085938 82.851562 266.085938 " fill-opacity="1" fill-rule="nonzero"/><path fill="#000000" d="M 94.332031 251.496094 C 94.207031 251.496094 94.078125 251.457031 93.96875 251.378906 C 93.699219 251.175781 93.636719 250.796875 93.835938 250.523438 L 115.480469 220.871094 C 115.613281 220.691406 115.835938 220.597656 116.058594 220.628906 C 116.28125 220.65625 116.46875 220.808594 116.546875 221.019531 L 119.851562 229.867188 C 119.96875 230.183594 119.808594 230.535156 119.492188 230.652344 C 119.175781 230.769531 118.824219 230.609375 118.703125 230.292969 L 115.796875 222.507812 L 94.824219 251.246094 C 94.707031 251.410156 94.519531 251.496094 94.332031 251.496094 " fill-opacity="1" fill-rule="nonzero"/><path fill="#ffffff" d="M 95.21875 252.492188 L 79.800781 257.84375 L 81.628906 264.347656 L 99.316406 258.929688 L 95.21875 252.492188 " fill-opacity="1" fill-rule="nonzero"/><path fill="#000000" d="M 80.542969 258.230469 L 82.046875 263.578125 L 98.371094 258.578125 L 94.960938 253.226562 Z M 81.628906 264.957031 C 81.527344 264.957031 81.425781 264.933594 81.335938 264.882812 C 81.191406 264.804688 81.085938 264.671875 81.042969 264.511719 L 79.210938 258.007812 C 79.125 257.695312 79.292969 257.371094 79.601562 257.265625 L 95.019531 251.914062 C 95.285156 251.820312 95.582031 251.921875 95.734375 252.164062 L 99.832031 258.597656 C 99.933594 258.761719 99.957031 258.960938 99.890625 259.140625 C 99.824219 259.320312 99.679688 259.457031 99.496094 259.511719 L 81.808594 264.929688 C 81.75 264.949219 81.6875 264.957031 81.628906 264.957031 " fill-opacity="1" fill-rule="nonzero"/><path fill="#ffffff" d="M 86.171875 260.0625 L 85.453125 259.125 C 85.019531 258.511719 84.226562 258.277344 83.53125 258.554688 L 82.398438 259.003906 L 81.78125 257.726562 C 81.628906 257.171875 81.085938 256.816406 80.515625 256.90625 C 77.039062 257.457031 65.480469 259.402344 61.371094 261.5 C 56.507812 263.984375 58.390625 271.628906 66.054688 272.160156 C 72.128906 272.585938 81.414062 267.277344 85.003906 265.058594 C 85.710938 264.621094 85.722656 263.601562 85.027344 263.144531 L 85.019531 263.140625 L 86.011719 262.125 C 86.554688 261.570312 86.625 260.699219 86.171875 260.0625 " fill-opacity="1" fill-rule="nonzero"/><path fill="#000000" d="M 80.691406 257.503906 C 80.664062 257.503906 80.636719 257.507812 80.609375 257.511719 C 77.179688 258.054688 65.675781 259.988281 61.648438 262.046875 C 59.863281 262.953125 59.003906 264.730469 59.402344 266.675781 C 59.824219 268.742188 61.828125 271.253906 66.097656 271.554688 C 71.972656 271.949219 81.050781 266.78125 84.683594 264.539062 C 84.902344 264.402344 84.929688 264.191406 84.929688 264.101562 C 84.929688 264.019531 84.910156 263.800781 84.691406 263.660156 C 84.539062 263.558594 84.4375 263.394531 84.414062 263.210938 C 84.394531 263.03125 84.453125 262.847656 84.582031 262.714844 L 85.570312 261.699219 C 85.90625 261.355469 85.953125 260.820312 85.679688 260.425781 L 84.96875 259.5 C 84.683594 259.09375 84.191406 258.949219 83.757812 259.121094 L 82.628906 259.574219 C 82.328125 259.691406 81.988281 259.5625 81.851562 259.273438 L 81.230469 257.992188 C 81.214844 257.960938 81.203125 257.925781 81.191406 257.890625 C 81.128906 257.660156 80.921875 257.503906 80.691406 257.503906 Z M 66.753906 272.796875 C 66.5 272.796875 66.253906 272.789062 66.011719 272.773438 C 61.058594 272.429688 58.710938 269.40625 58.203125 266.921875 C 57.699219 264.449219 58.832031 262.109375 61.09375 260.953125 C 65.28125 258.816406 76.945312 256.855469 80.417969 256.300781 C 81.277344 256.164062 82.097656 256.683594 82.355469 257.507812 L 82.703125 258.226562 L 83.304688 257.988281 C 84.265625 257.601562 85.355469 257.925781 85.953125 258.773438 L 86.65625 259.691406 C 86.664062 259.695312 86.667969 259.703125 86.671875 259.710938 C 87.292969 260.589844 87.195312 261.785156 86.449219 262.554688 L 85.871094 263.144531 C 86.058594 263.429688 86.15625 263.765625 86.152344 264.121094 C 86.144531 264.71875 85.835938 265.261719 85.328125 265.578125 C 81.738281 267.796875 72.957031 272.796875 66.753906 272.796875 " fill-opacity="1" fill-rule="nonzero"/><path fill="#000000" d="M 75.488281 266.902344 C 75.222656 266.902344 74.980469 266.726562 74.902344 266.457031 L 73.316406 260.910156 C 73.222656 260.585938 73.414062 260.246094 73.738281 260.152344 C 74.0625 260.0625 74.398438 260.246094 74.492188 260.574219 L 76.078125 266.121094 C 76.171875 266.449219 75.984375 266.785156 75.660156 266.878906 C 75.601562 266.894531 75.546875 266.902344 75.488281 266.902344 " fill-opacity="1" fill-rule="nonzero"/><path fill="#000000" d="M 66.691406 270.566406 C 66.601562 270.566406 66.515625 270.546875 66.429688 270.507812 C 61.226562 268.042969 61.632812 265.371094 61.898438 263.601562 L 61.917969 263.464844 C 61.96875 263.132812 62.285156 262.898438 62.613281 262.953125 C 62.949219 263 63.179688 263.3125 63.128906 263.644531 L 63.109375 263.785156 C 62.871094 265.363281 62.574219 267.328125 66.953125 269.402344 C 67.257812 269.546875 67.386719 269.910156 67.242188 270.21875 C 67.140625 270.4375 66.917969 270.566406 66.691406 270.566406 " fill-opacity="1" fill-rule="nonzero"/><path fill="#000000" d="M 90.714844 270.636719 C 90.476562 270.636719 90.242188 270.628906 90.027344 270.617188 L 89.890625 270.613281 C 89.550781 270.601562 89.289062 270.316406 89.304688 269.976562 C 89.316406 269.640625 89.601562 269.371094 89.9375 269.390625 L 90.078125 269.398438 C 91.667969 269.460938 93.65625 269.546875 95.242188 264.964844 C 95.351562 264.644531 95.703125 264.472656 96.019531 264.585938 C 96.339844 264.695312 96.507812 265.046875 96.398438 265.363281 C 94.742188 270.140625 92.457031 270.636719 90.714844 270.636719 " fill-opacity="1" fill-rule="nonzero"/><path fill="#000000" d="M 70.148438 253.222656 C 70.09375 253.222656 70.035156 253.214844 69.980469 253.199219 C 69.65625 253.101562 69.46875 252.761719 69.5625 252.441406 L 70.679688 248.609375 C 69.296875 247.457031 63.265625 242.488281 53.960938 235.640625 C 43.363281 227.839844 41.035156 226.242188 41.011719 226.226562 C 40.734375 226.039062 40.664062 225.65625 40.855469 225.375 C 41.042969 225.097656 41.425781 225.027344 41.703125 225.21875 C 41.726562 225.230469 44.054688 226.832031 54.683594 234.65625 C 65.324219 242.484375 71.710938 247.875 71.773438 247.929688 C 71.957031 248.085938 72.03125 248.335938 71.964844 248.570312 L 70.738281 252.78125 C 70.660156 253.050781 70.414062 253.222656 70.148438 253.222656 " fill-opacity="1" fill-rule="nonzero"/><path fill="#000000" d="M 126.023438 212.898438 C 125.222656 209.3125 120.109375 196.085938 116.253906 186.34375 C 113.175781 178.566406 105.738281 172.960938 96.882812 171.835938 C 90.292969 170.996094 83.144531 170.824219 76.273438 171.367188 C 64.816406 172.269531 54.976562 179.285156 51.183594 189.347656 C 47.773438 198.40625 44.050781 209.53125 43.96875 215.164062 C 43.878906 221.167969 47.503906 226.902344 51.457031 231.359375 C 56.449219 236.976562 63.566406 240.480469 71.253906 241.191406 C 82.238281 242.210938 99.375 243.230469 107.160156 240.683594 C 119.097656 236.785156 127.960938 221.578125 126.023438 212.898438 " fill-opacity="1" fill-rule="nonzero"/><path fill="#ffffff" d="M 110.023438 195.289062 L 58.128906 195.289062 C 55.773438 195.289062 53.867188 197.195312 53.867188 199.554688 L 53.867188 233.882812 C 53.867188 236.238281 55.773438 238.148438 58.128906 238.148438 L 110.023438 238.148438 C 112.378906 238.148438 114.289062 236.238281 114.289062 233.882812 L 114.289062 199.554688 C 114.289062 197.195312 112.378906 195.289062 110.023438 195.289062 " fill-opacity="1" fill-rule="nonzero"/><path fill="#000000" d="M 58.128906 195.898438 C 56.117188 195.898438 54.476562 197.539062 54.476562 199.554688 L 54.476562 233.882812 C 54.476562 235.898438 56.117188 237.539062 58.128906 237.539062 L 110.023438 237.539062 C 112.039062 237.539062 113.675781 235.898438 113.675781 233.882812 L 113.675781 199.554688 C 113.675781 197.539062 112.039062 195.898438 110.023438 195.898438 Z M 110.023438 238.761719 L 58.128906 238.761719 C 55.441406 238.761719 53.253906 236.574219 53.253906 233.882812 L 53.253906 199.554688 C 53.253906 196.863281 55.441406 194.675781 58.128906 194.675781 L 110.023438 194.675781 C 112.710938 194.675781 114.898438 196.863281 114.898438 199.554688 L 114.898438 233.882812 C 114.898438 236.574219 112.710938 238.761719 110.023438 238.761719 " fill-opacity="1" fill-rule="nonzero"/><path fill="#caddff" d="M 87.613281 216.71875 C 87.613281 218.671875 86.027344 220.253906 84.078125 220.253906 C 82.125 220.253906 80.542969 218.671875 80.542969 216.71875 C 80.542969 214.765625 82.125 213.179688 84.078125 213.179688 C 86.027344 213.179688 87.613281 214.765625 87.613281 216.71875 " fill-opacity="1" fill-rule="nonzero"/><path fill="#caddff" d="M 114.003906 238.425781 L 54.351562 238.425781 C 52.867188 238.425781 51.667969 239.625 51.667969 241.109375 C 51.667969 242.59375 52.867188 243.796875 54.351562 243.796875 L 114.003906 243.796875 C 115.488281 243.796875 116.691406 242.59375 116.691406 241.109375 C 116.691406 239.625 115.488281 238.425781 114.003906 238.425781 " fill-opacity="1" fill-rule="nonzero"/><path fill="#000000" d="M 54.351562 239.035156 C 53.207031 239.035156 52.277344 239.96875 52.277344 241.109375 C 52.277344 242.253906 53.207031 243.183594 54.351562 243.183594 L 114.003906 243.183594 C 115.148438 243.183594 116.078125 242.253906 116.078125 241.109375 C 116.078125 239.96875 115.148438 239.035156 114.003906 239.035156 Z M 114.003906 244.410156 L 54.351562 244.410156 C 52.53125 244.410156 51.054688 242.929688 51.054688 241.109375 C 51.054688 239.292969 52.53125 237.8125 54.351562 237.8125 L 114.003906 237.8125 C 115.820312 237.8125 117.300781 239.292969 117.300781 241.109375 C 117.300781 242.929688 115.820312 244.410156 114.003906 244.410156 " fill-opacity="1" fill-rule="nonzero"/><path fill="#ffffff" d="M 89.210938 171.625 L 89.769531 163.703125 C 90.148438 163.675781 90.410156 163.660156 90.484375 163.65625 C 92.695312 163.632812 93.414062 162.917969 93.605469 161.101562 C 93.722656 159.964844 93.765625 158.277344 93.210938 156.167969 C 93.152344 155.941406 93.164062 155.703125 93.257812 155.488281 L 93.632812 154.601562 C 93.710938 154.3125 93.613281 154 93.378906 153.808594 L 93.179688 153.644531 C 92.457031 153.050781 91.859375 152.324219 91.378906 151.519531 C 90.933594 150.777344 90.183594 149.382812 89.667969 149.136719 C 88.214844 148.445312 82.324219 145.359375 79.03125 150.746094 C 76.464844 154.949219 80.660156 160.734375 82.183594 162.628906 C 82.554688 163.085938 79.695312 172.066406 79.695312 172.066406 L 76 172.960938 C 76 172.960938 78.851562 178.023438 87.511719 175.929688 C 93.679688 174.4375 92.699219 172.144531 92.699219 172.144531 L 89.210938 171.625 " fill-opacity="1" fill-rule="nonzero"/><path fill="#000000" d="M 77.050781 173.335938 C 78.152344 174.554688 81.160156 176.839844 87.367188 175.335938 C 90.792969 174.507812 91.757812 173.476562 92.027344 172.9375 C 92.078125 172.839844 92.105469 172.753906 92.125 172.675781 L 89.121094 172.234375 C 88.804688 172.183594 88.578125 171.902344 88.601562 171.585938 L 89.160156 163.660156 C 89.179688 163.355469 89.421875 163.113281 89.726562 163.09375 C 90.125 163.0625 90.398438 163.046875 90.480469 163.046875 C 92.4375 163.023438 92.84375 162.5 92.996094 161.039062 C 93.160156 159.460938 93.039062 157.917969 92.621094 156.320312 C 92.527344 155.960938 92.550781 155.582031 92.695312 155.25 L 93.046875 154.417969 C 93.054688 154.367188 93.03125 154.3125 92.992188 154.28125 L 92.789062 154.117188 C 92.042969 153.503906 91.390625 152.730469 90.851562 151.832031 L 90.648438 151.488281 C 90.363281 150.996094 89.695312 149.847656 89.402344 149.6875 L 89.246094 149.613281 C 87.566406 148.800781 82.449219 146.328125 79.554688 151.066406 C 77.261719 154.820312 80.960938 160.132812 82.660156 162.246094 C 82.890625 162.527344 83.234375 162.957031 80.277344 172.25 C 80.214844 172.457031 80.046875 172.609375 79.839844 172.660156 Z M 83.519531 177.054688 C 77.683594 177.054688 75.570312 173.445312 75.46875 173.257812 C 75.375 173.09375 75.363281 172.890625 75.441406 172.714844 C 75.515625 172.539062 75.671875 172.410156 75.855469 172.367188 L 79.214844 171.554688 C 80.394531 167.828125 81.550781 163.761719 81.605469 162.882812 C 79.703125 160.488281 75.859375 154.765625 78.511719 150.429688 C 80.816406 146.65625 84.605469 146.011719 89.777344 148.511719 L 89.929688 148.585938 C 90.5 148.855469 91.046875 149.742188 91.707031 150.871094 L 91.902344 151.207031 C 92.367188 151.984375 92.925781 152.648438 93.566406 153.171875 L 93.765625 153.335938 C 94.1875 153.679688 94.367188 154.238281 94.222656 154.761719 C 94.214844 154.789062 94.207031 154.816406 94.195312 154.84375 L 93.820312 155.726562 C 93.78125 155.8125 93.777344 155.914062 93.800781 156.011719 C 94.257812 157.753906 94.390625 159.4375 94.210938 161.164062 C 93.980469 163.371094 92.9375 164.242188 90.492188 164.269531 C 90.464844 164.269531 90.414062 164.273438 90.339844 164.277344 L 89.859375 171.105469 L 92.789062 171.535156 C 92.996094 171.566406 93.175781 171.707031 93.261719 171.902344 C 93.292969 171.976562 93.550781 172.632812 93.121094 173.488281 C 92.472656 174.78125 90.632812 175.804688 87.65625 176.523438 C 86.105469 176.898438 84.734375 177.054688 83.519531 177.054688 " fill-opacity="1" fill-rule="nonzero"/><path fill="#000000" d="M 80.847656 143.898438 C 82.445312 143.554688 84.28125 143.800781 85.054688 143.515625 C 86.304688 143.054688 86.339844 141.554688 88.066406 141.132812 C 90.160156 140.625 91.035156 141.519531 91.851562 142.765625 C 91.988281 142.972656 92.109375 143.207031 92.207031 143.46875 C 93.523438 147 91.863281 148.722656 91.121094 149.28125 C 91.121094 149.28125 86.414062 151.714844 85.605469 152.410156 C 84.851562 153.0625 83.984375 154.601562 84.53125 156.816406 C 84.601562 157.101562 84.476562 157.398438 84.234375 157.546875 C 83.953125 157.714844 83.585938 157.632812 83.390625 157.351562 C 82.777344 156.464844 81.441406 154.746094 80.488281 155.152344 C 79.292969 155.664062 79.667969 159.25 82.304688 159.664062 C 83.113281 159.789062 83.773438 160.621094 83.691406 161.46875 C 83.640625 162.023438 83.117188 162.695312 82.34375 162.875 C 81.871094 162.980469 81.402344 162.789062 80.984375 162.523438 C 79.265625 161.425781 74.410156 156.761719 73.804688 152.582031 C 73.078125 147.542969 78.722656 144.355469 80.847656 143.898438 " fill-opacity="1" fill-rule="nonzero"/><path fill="#000000" d="M 90.363281 164.191406 C 90.355469 164.191406 90.347656 164.191406 90.34375 164.191406 C 90.257812 164.1875 88.292969 164.101562 86.871094 162.894531 C 86.632812 162.691406 86.605469 162.332031 86.808594 162.09375 C 87.011719 161.855469 87.367188 161.828125 87.609375 162.027344 C 88.722656 162.976562 90.367188 163.054688 90.386719 163.054688 C 90.699219 163.066406 90.941406 163.332031 90.929688 163.644531 C 90.917969 163.949219 90.667969 164.191406 90.363281 164.191406 " fill-opacity="1" fill-rule="nonzero"/><path fill="#5479f7" d="M 291.65625 330.898438 C 291.65625 330.898438 278.417969 270.214844 316.890625 220.734375 C 318.070312 219.21875 324.144531 223.589844 325.34375 222.0625 C 326.875 220.113281 323.480469 212.226562 325.167969 210.347656 C 331.441406 203.382812 338.835938 196.980469 347.550781 191.472656 C 347.550781 191.472656 352.652344 211.175781 349.136719 237.765625 C 348.871094 239.769531 339.90625 242.363281 339.539062 244.441406 C 339.1875 246.40625 347.441406 247.847656 346.988281 249.867188 C 341.148438 275.972656 326.28125 306.328125 291.65625 330.898438 " fill-opacity="1" fill-rule="nonzero"/><path fill="#99b9ff" d="M 283.472656 251.492188 C 282.589844 249.734375 288.207031 239.4375 287.292969 237.757812 C 269.390625 204.75 246.660156 186.675781 246.660156 186.675781 C 241.253906 200.847656 238.496094 214.90625 237.738281 228.589844 C 237.617188 230.773438 246.621094 236.285156 246.597656 238.449219 C 246.574219 240.828125 237.992188 242.058594 238.078125 244.410156 C 239.378906 279.101562 252.917969 309.933594 266.738281 333.78125 C 267.03125 333.742188 267.320312 333.695312 267.609375 333.652344 C 281.847656 330.726562 294.578125 331.71875 306.375 327.5 C 307.019531 327.265625 307.664062 327.027344 308.308594 326.789062 C 308.648438 298.136719 302.65625 270.847656 293.355469 250.691406 C 292.496094 248.828125 284.371094 253.277344 283.472656 251.492188 " fill-opacity="1" fill-rule="nonzero"/><path fill="#caddff" d="M 246.925781 187.695312 C 242.011719 200.824219 239.125 214.589844 238.34375 228.625 C 238.300781 229.429688 240.890625 231.660156 242.605469 233.132812 C 245.46875 235.59375 247.222656 237.167969 247.210938 238.457031 C 247.191406 240.046875 244.9375 240.996094 242.546875 242 C 240.90625 242.6875 238.65625 243.632812 238.6875 244.386719 C 239.753906 272.894531 249.035156 301.921875 267.058594 333.117188 C 267.085938 333.113281 267.113281 333.109375 267.136719 333.105469 L 267.523438 333.050781 C 273.441406 331.832031 279.101562 331.292969 284.578125 330.773438 C 292.175781 330.046875 299.347656 329.363281 306.167969 326.925781 C 306.675781 326.738281 307.1875 326.550781 307.699219 326.363281 C 307.960938 299.523438 302.535156 272.0625 292.800781 250.953125 C 292.585938 250.488281 289.648438 251.34375 288.542969 251.667969 C 285.890625 252.441406 283.597656 253.109375 282.925781 251.769531 C 282.386719 250.699219 283.296875 248.261719 284.824219 244.371094 C 285.714844 242.109375 287.054688 238.6875 286.753906 238.046875 C 270.800781 208.636719 250.761719 190.933594 246.925781 187.695312 Z M 266.414062 334.441406 L 266.207031 334.089844 C 247.945312 302.582031 238.546875 273.253906 237.464844 244.433594 C 237.40625 242.832031 239.671875 241.882812 242.074219 240.871094 C 243.722656 240.179688 245.980469 239.230469 245.984375 238.445312 C 245.996094 237.660156 243.476562 235.496094 241.808594 234.0625 C 238.84375 231.511719 237.050781 229.867188 237.125 228.554688 C 237.925781 214.109375 240.941406 199.945312 246.085938 186.460938 L 246.382812 185.679688 L 247.039062 186.199219 C 247.261719 186.382812 270.070312 204.726562 287.832031 237.464844 C 288.390625 238.503906 287.488281 240.933594 285.960938 244.816406 C 285.117188 246.972656 283.703125 250.578125 284.019531 251.222656 C 284.019531 251.222656 284.195312 251.402344 285.160156 251.261719 C 286.007812 251.132812 287.121094 250.808594 288.199219 250.492188 C 290.910156 249.703125 293.253906 249.019531 293.90625 250.4375 C 303.773438 271.820312 309.242188 299.648438 308.917969 326.796875 L 308.910156 327.214844 L 308.515625 327.363281 C 307.871094 327.601562 307.230469 327.839844 306.582031 328.074219 C 299.617188 330.566406 292.367188 331.257812 284.691406 331.988281 C 279.25 332.507812 273.621094 333.042969 267.734375 334.253906 L 267.316406 334.316406 C 267.152344 334.339844 266.988281 334.367188 266.820312 334.386719 L 266.414062 334.441406 " fill-opacity="1" fill-rule="nonzero"/><path fill="#caddff" d="M 286.707031 317.019531 C 286.464844 317.019531 286.238281 316.875 286.140625 316.640625 C 281.726562 305.988281 277.550781 295.078125 273.710938 284.214844 C 273.597656 283.894531 273.765625 283.546875 274.082031 283.433594 C 274.402344 283.320312 274.75 283.488281 274.863281 283.804688 C 278.695312 294.652344 282.867188 305.542969 287.269531 316.171875 C 287.398438 316.488281 287.25 316.84375 286.9375 316.972656 C 286.863281 317.003906 286.78125 317.019531 286.707031 317.019531 " fill-opacity="1" fill-rule="nonzero"/><path fill="#caddff" d="M 269.003906 269.046875 C 268.75 269.046875 268.507812 268.878906 268.425781 268.621094 C 262.414062 250.140625 257.171875 231.171875 252.839844 212.242188 L 250.859375 203.578125 C 250.78125 203.25 250.988281 202.921875 251.316406 202.847656 C 251.648438 202.769531 251.976562 202.980469 252.050781 203.308594 L 254.03125 211.964844 C 258.355469 230.863281 263.589844 249.796875 269.585938 268.246094 C 269.691406 268.566406 269.515625 268.910156 269.195312 269.015625 C 269.132812 269.035156 269.070312 269.046875 269.003906 269.046875 " fill-opacity="1" fill-rule="nonzero"/><path fill="#99b9ff" d="M 304.671875 328.96875 C 304.671875 328.96875 296.746094 267.714844 358.507812 249.675781 C 358.507812 249.675781 360.285156 302.890625 304.671875 328.96875 " fill-opacity="1" fill-rule="nonzero"/><path fill="#caddff" d="M 312.496094 312.351562 C 312.402344 312.351562 312.304688 312.328125 312.214844 312.28125 C 311.914062 312.125 311.796875 311.753906 311.957031 311.453125 C 321.550781 293.074219 347.164062 265.972656 347.421875 265.703125 C 347.652344 265.457031 348.042969 265.445312 348.285156 265.675781 C 348.527344 265.910156 348.539062 266.296875 348.308594 266.542969 C 348.050781 266.8125 322.554688 293.792969 313.039062 312.019531 C 312.929688 312.230469 312.714844 312.351562 312.496094 312.351562 " fill-opacity="1" fill-rule="nonzero"/><path fill="#000000" d="M 248.605469 277.492188 C 242.527344 269.753906 234.875 274.742188 231.597656 274.171875 C 224.257812 272.894531 225.425781 269.121094 222.085938 266.023438 C 219.589844 263.699219 211.523438 259.75 201.578125 270.269531 C 201.578125 270.269531 197.441406 277.347656 191.390625 275.617188 C 188.363281 274.753906 184.390625 275.667969 181.140625 277.695312 C 175.40625 281.125 170.511719 290.820312 171.523438 293.351562 C 172.070312 294.722656 174.644531 295.011719 176.875 295.023438 C 180.597656 297.898438 184.640625 298.890625 187.902344 298.574219 C 188.761719 299.195312 189.453125 300.0625 189.859375 301.117188 C 192.152344 307.101562 199.238281 318.320312 217.710938 303.792969 C 219.101562 302.695312 220.890625 302.355469 222.558594 302.839844 C 224.605469 303.4375 227.152344 306.425781 236.269531 303.871094 C 242.128906 302.234375 243.117188 295.46875 244.285156 292.304688 C 245.210938 289.785156 246.878906 288.554688 247.855469 288.023438 C 248.972656 287.417969 249.898438 286.488281 250.398438 285.3125 C 251.140625 283.570312 251.296875 280.914062 248.605469 277.492188 " fill-opacity="1" fill-rule="nonzero"/><path fill="#ffffff" d="M 183.074219 289.828125 C 185.238281 290.6875 185.292969 294.785156 185.871094 294.671875 C 186.316406 294.582031 185.765625 291.902344 186.929688 291.292969 C 187.476562 291.011719 188.273438 290.929688 188.945312 291.660156 C 189.710938 292.5 190.066406 294.375 189.246094 296 C 191.722656 297.867188 194.234375 299.734375 196.785156 301.601562 C 199.808594 303.824219 202.816406 305.996094 205.804688 308.125 L 194.125 311.964844 L 187.269531 303.125 C 186.570312 304.007812 185.707031 304.828125 184.671875 305.355469 C 184.671875 305.355469 182.101562 305.175781 179.699219 301.792969 L 179.140625 302.023438 C 178.746094 302.183594 178.308594 301.898438 178.296875 301.472656 L 178.253906 300.035156 C 178.234375 299.492188 178.121094 298.960938 177.917969 298.460938 C 177.574219 297.617188 177.25 296.667969 176.964844 295.605469 C 176.597656 294.25 177.039062 292.796875 178.097656 291.878906 C 180.742188 289.601562 182.210938 289.484375 183.074219 289.828125 " fill-opacity="1" fill-rule="nonzero"/><path fill="#000000" d="M 187.269531 302.515625 C 187.273438 302.515625 187.273438 302.515625 187.273438 302.515625 C 187.460938 302.515625 187.636719 302.601562 187.753906 302.75 L 194.34375 311.25 L 204.46875 307.921875 C 201.785156 306.003906 199.085938 304.046875 196.421875 302.097656 C 193.910156 300.25 191.371094 298.363281 188.878906 296.492188 C 188.640625 296.3125 188.566406 295.992188 188.699219 295.726562 C 189.425781 294.285156 189.046875 292.679688 188.492188 292.074219 C 188.03125 291.570312 187.542969 291.664062 187.210938 291.835938 C 186.804688 292.050781 186.746094 293.09375 186.707031 293.71875 C 186.664062 294.449219 186.625 295.144531 185.988281 295.269531 C 185.222656 295.421875 185 294.609375 184.738281 293.667969 C 184.425781 292.542969 183.953125 290.835938 182.847656 290.394531 C 181.914062 290.023438 180.40625 290.699219 178.5 292.34375 C 177.621094 293.101562 177.25 294.316406 177.554688 295.445312 C 177.820312 296.433594 178.132812 297.371094 178.484375 298.226562 C 178.71875 298.804688 178.84375 299.40625 178.863281 300.015625 L 178.90625 301.453125 L 179.472656 301.226562 C 179.730469 301.121094 180.035156 301.207031 180.199219 301.4375 C 182.078125 304.082031 184 304.617188 184.558594 304.722656 C 185.347656 304.285156 186.097656 303.625 186.789062 302.746094 C 186.90625 302.601562 187.082031 302.515625 187.269531 302.515625 Z M 194.125 312.578125 C 193.9375 312.578125 193.757812 312.492188 193.640625 312.339844 L 187.246094 304.097656 C 186.53125 304.882812 185.761719 305.488281 184.949219 305.902344 C 184.847656 305.949219 184.738281 305.972656 184.628906 305.964844 C 184.515625 305.957031 181.949219 305.738281 179.492188 302.539062 L 179.375 302.585938 C 179.003906 302.738281 178.578125 302.699219 178.242188 302.480469 C 177.90625 302.261719 177.699219 301.894531 177.683594 301.492188 L 177.640625 300.054688 C 177.628906 299.589844 177.527344 299.128906 177.351562 298.691406 C 176.984375 297.789062 176.65625 296.804688 176.375 295.765625 C 175.949219 294.1875 176.46875 292.480469 177.703125 291.417969 C 180.039062 289.398438 181.875 288.691406 183.300781 289.261719 C 184.597656 289.773438 185.230469 291.128906 185.625 292.351562 C 185.757812 291.691406 186.035156 291.070312 186.648438 290.75 C 187.398438 290.359375 188.511719 290.289062 189.394531 291.246094 C 190.246094 292.179688 190.65625 294.066406 190 295.804688 C 192.367188 297.582031 194.765625 299.363281 197.144531 301.109375 C 200.128906 303.296875 203.164062 305.492188 206.160156 307.625 C 206.347656 307.757812 206.445312 307.988281 206.410156 308.214844 C 206.375 308.441406 206.214844 308.628906 205.996094 308.703125 L 194.316406 312.546875 C 194.25 312.566406 194.1875 312.578125 194.125 312.578125 " fill-opacity="1" fill-rule="nonzero"/><path fill="#ffffff" d="M 188.488281 298.238281 C 188.488281 298.238281 189.054688 300.699219 187.269531 303.125 L 188.488281 298.238281 " fill-opacity="1" fill-rule="nonzero"/><path fill="#000000" d="M 187.269531 303.738281 C 187.144531 303.738281 187.015625 303.699219 186.90625 303.617188 C 186.636719 303.417969 186.578125 303.035156 186.777344 302.765625 C 188.378906 300.589844 187.898438 298.398438 187.894531 298.375 C 187.816406 298.046875 188.023438 297.71875 188.351562 297.644531 C 188.679688 297.570312 189.007812 297.773438 189.082031 298.101562 C 189.109375 298.214844 189.691406 300.867188 187.761719 303.488281 C 187.640625 303.652344 187.457031 303.738281 187.269531 303.738281 " fill-opacity="1" fill-rule="nonzero"/><path fill="#ffffff" d="M 304.800781 326.195312 L 337.980469 335.207031 L 340.355469 339.824219 L 305.164062 339.328125 L 304.800781 326.195312 " fill-opacity="1" fill-rule="nonzero"/><path fill="#000000" d="M 305.757812 338.726562 L 339.34375 339.199219 L 337.558594 335.726562 L 305.433594 327 Z M 340.351562 340.433594 C 340.347656 340.433594 340.347656 340.433594 340.34375 340.433594 L 305.15625 339.941406 C 304.824219 339.9375 304.558594 339.675781 304.550781 339.347656 L 304.1875 326.210938 C 304.183594 326.019531 304.269531 325.835938 304.421875 325.714844 C 304.574219 325.59375 304.773438 325.554688 304.960938 325.605469 L 338.140625 334.617188 C 338.304688 334.660156 338.441406 334.773438 338.523438 334.925781 L 340.894531 339.542969 C 340.992188 339.734375 340.984375 339.960938 340.871094 340.144531 C 340.757812 340.324219 340.5625 340.433594 340.351562 340.433594 " fill-opacity="1" fill-rule="nonzero"/><path fill="#5479f7" d="M 330.242188 330.902344 C 330.445312 329.246094 331.050781 326.785156 332.792969 324.429688 C 333.613281 323.320312 335.15625 323.042969 336.332031 323.761719 L 356.589844 336.191406 C 358.574219 337.589844 357.261719 340.382812 355.410156 340.382812 L 331.417969 340.382812 L 333.882812 335.375 L 331.609375 333.859375 C 330.636719 333.207031 330.101562 332.066406 330.242188 330.902344 " fill-opacity="1" fill-rule="nonzero"/><path fill="#000000" d="M 332.398438 339.769531 L 355.410156 339.769531 C 356.039062 339.769531 356.660156 339.253906 356.882812 338.542969 C 356.992188 338.199219 357.144531 337.332031 356.234375 336.691406 L 336.011719 324.28125 C 335.105469 323.726562 333.90625 323.949219 333.285156 324.792969 C 331.617188 327.042969 331.039062 329.398438 330.847656 330.976562 C 330.734375 331.910156 331.15625 332.820312 331.945312 333.351562 L 334.222656 334.867188 C 334.476562 335.039062 334.566406 335.371094 334.429688 335.644531 Z M 355.410156 340.996094 L 331.417969 340.996094 C 331.207031 340.996094 331.011719 340.886719 330.898438 340.707031 C 330.789062 340.527344 330.777344 340.300781 330.867188 340.113281 L 333.097656 335.585938 L 331.269531 334.367188 C 330.09375 333.582031 329.464844 332.226562 329.636719 330.832031 C 329.84375 329.105469 330.476562 326.53125 332.300781 324.066406 C 333.296875 322.71875 335.210938 322.355469 336.652344 323.242188 L 356.90625 335.671875 C 358.011719 336.449219 358.4375 337.683594 358.050781 338.914062 C 357.664062 340.140625 356.578125 340.996094 355.410156 340.996094 " fill-opacity="1" fill-rule="nonzero"/><path fill="#000000" d="M 354.328125 338.875 C 354.226562 338.875 354.125 338.847656 354.027344 338.796875 L 334.144531 327.503906 C 333.847656 327.335938 333.742188 326.960938 333.910156 326.667969 C 334.078125 326.375 334.453125 326.273438 334.746094 326.441406 L 354.632812 337.730469 C 354.925781 337.898438 355.027344 338.273438 354.863281 338.566406 C 354.75 338.765625 354.542969 338.875 354.328125 338.875 " fill-opacity="1" fill-rule="nonzero"/><path fill="#ffffff" d="M 296.03125 303.574219 L 326.894531 287.121094 L 331.761719 289.765625 L 305.492188 313.167969 L 296.03125 303.574219 " fill-opacity="1" fill-rule="nonzero"/><path fill="#000000" d="M 297.046875 303.726562 L 305.523438 312.320312 L 330.710938 289.886719 L 326.894531 287.816406 Z M 305.496094 313.777344 C 305.339844 313.777344 305.179688 313.714844 305.0625 313.59375 L 295.601562 304.003906 C 295.464844 303.863281 295.402344 303.671875 295.433594 303.480469 C 295.460938 303.289062 295.578125 303.121094 295.75 303.03125 L 326.609375 286.582031 C 326.789062 286.484375 327.003906 286.484375 327.1875 286.582031 L 332.058594 289.226562 C 332.230469 289.320312 332.351562 289.496094 332.371094 289.691406 C 332.394531 289.890625 332.320312 290.085938 332.171875 290.21875 L 305.902344 313.621094 C 305.789062 313.726562 305.640625 313.777344 305.496094 313.777344 " fill-opacity="1" fill-rule="nonzero"/><path fill="#5479f7" d="M 323.789062 287.632812 C 323.152344 286.089844 322.472656 283.648438 322.835938 280.738281 C 323.007812 279.371094 324.214844 278.371094 325.59375 278.421875 L 349.335938 279.3125 C 351.179688 279.523438 351.671875 281.96875 350.058594 282.878906 L 329.152344 294.652344 L 329.152344 289.742188 L 326.425781 289.539062 C 325.261719 289.449219 324.234375 288.71875 323.789062 287.632812 " fill-opacity="1" fill-rule="nonzero"/><path fill="#000000" d="M 324.355469 287.398438 C 324.714844 288.269531 325.523438 288.855469 326.472656 288.925781 L 329.199219 289.132812 C 329.519531 289.15625 329.765625 289.425781 329.765625 289.742188 L 329.761719 293.605469 L 349.761719 282.34375 C 350.367188 282.003906 350.484375 281.402344 350.394531 280.953125 C 350.308594 280.511719 349.96875 280.011719 349.292969 279.921875 L 325.574219 279.03125 C 324.511719 278.984375 323.574219 279.777344 323.441406 280.816406 C 323.09375 283.59375 323.746094 285.929688 324.355469 287.398438 Z M 329.152344 295.265625 C 329.042969 295.265625 328.9375 295.234375 328.84375 295.179688 C 328.65625 295.070312 328.539062 294.867188 328.539062 294.652344 L 328.542969 290.3125 L 326.382812 290.148438 C 324.972656 290.039062 323.761719 289.167969 323.226562 287.867188 C 322.5625 286.261719 321.851562 283.703125 322.230469 280.664062 C 322.441406 279 323.910156 277.746094 325.617188 277.808594 L 349.363281 278.703125 C 349.378906 278.703125 349.394531 278.703125 349.410156 278.707031 C 350.515625 278.832031 351.375 279.621094 351.59375 280.710938 C 351.8125 281.804688 351.332031 282.863281 350.359375 283.410156 L 329.449219 295.1875 C 329.359375 295.238281 329.253906 295.265625 329.152344 295.265625 " fill-opacity="1" fill-rule="nonzero"/><path fill="#000000" d="M 345.839844 282.769531 C 345.835938 282.769531 345.828125 282.769531 345.820312 282.769531 L 325.789062 282.121094 C 325.453125 282.109375 325.191406 281.828125 325.199219 281.488281 C 325.210938 281.152344 325.5 280.890625 325.832031 280.898438 L 345.859375 281.546875 C 346.199219 281.558594 346.464844 281.839844 346.449219 282.179688 C 346.441406 282.507812 346.171875 282.769531 345.839844 282.769531 " fill-opacity="1" fill-rule="nonzero"/><path fill="#000000" d="M 266.015625 332.273438 C 266.015625 332.273438 279.238281 313.210938 286.039062 305.628906 C 292.84375 298.046875 297.679688 289.929688 297.679688 289.929688 C 297.679688 289.929688 311.699219 295.972656 319.113281 303.125 L 286.722656 336.742188 L 266.015625 332.273438 " fill-opacity="1" fill-rule="nonzero"/><path fill="#000000" d="M 221.746094 324.234375 C 221.746094 324.234375 224.679688 323.148438 225.964844 319.472656 C 227.25 315.800781 227.878906 308.257812 224.902344 308.960938 C 221.925781 309.664062 215.574219 325.390625 215.574219 325.390625 L 221.746094 324.234375 " fill-opacity="1" fill-rule="nonzero"/><path fill="#000000" d="M 204.207031 340.089844 L 322.257812 340.089844 L 311.609375 323.042969 C 311.609375 323.042969 294.71875 318.90625 285.945312 322.371094 C 277.167969 325.835938 271.585938 327.632812 265.039062 326.792969 C 258.492188 325.953125 243.609375 317.542969 234.15625 318.457031 C 224.707031 319.371094 209.234375 325.671875 209.234375 325.671875 L 204.207031 340.089844 " fill-opacity="1" fill-rule="nonzero"/><path fill="#caddff" d="M 269.292969 326.957031 C 268.976562 326.957031 268.710938 326.707031 268.6875 326.382812 C 268.664062 326.046875 268.917969 325.753906 269.257812 325.734375 C 273.746094 325.4375 278.316406 323.910156 285.183594 321.199219 C 288.46875 319.902344 293.171875 319.488281 299.167969 319.960938 C 299.503906 319.988281 299.757812 320.285156 299.730469 320.621094 C 299.703125 320.957031 299.402344 321.199219 299.074219 321.183594 C 293.257812 320.722656 288.738281 321.109375 285.632812 322.335938 C 278.652344 325.09375 273.988281 326.644531 269.339844 326.953125 C 269.324219 326.953125 269.3125 326.957031 269.292969 326.957031 " fill-opacity="1" fill-rule="nonzero"/><path fill="#caddff" d="M 217.886719 322.597656 C 217.628906 322.597656 217.386719 322.429688 217.304688 322.171875 C 217.203125 321.847656 217.386719 321.503906 217.707031 321.402344 L 227.78125 318.289062 C 228.101562 318.191406 228.445312 318.371094 228.546875 318.691406 C 228.644531 319.015625 228.464844 319.359375 228.140625 319.457031 L 218.070312 322.574219 C 218.007812 322.589844 217.945312 322.597656 217.886719 322.597656 " fill-opacity="1" fill-rule="nonzero"/><path fill="#ffffff" d="M 182.472656 331.359375 L 169.183594 304.996094 C 168.585938 303.816406 167.011719 302.21875 165.730469 301.894531 L 155.613281 300.59375 C 154.824219 300.441406 154.195312 301.285156 154.585938 301.988281 C 155.015625 302.757812 155.871094 302.996094 156.597656 303.242188 L 159.195312 304.125 C 159.195312 304.125 159.714844 310.25 166.574219 310.660156 L 174.042969 331.359375 L 182.472656 331.359375 " fill-opacity="1" fill-rule="nonzero"/><path fill="#000000" d="M 174.472656 330.746094 L 181.480469 330.746094 L 168.636719 305.273438 C 168.101562 304.214844 166.671875 302.789062 165.613281 302.496094 L 155.539062 301.203125 C 155.296875 301.15625 155.175781 301.292969 155.144531 301.339844 C 155.097656 301.402344 155.035156 301.535156 155.121094 301.6875 C 155.402344 302.199219 156 302.398438 156.632812 302.609375 L 159.390625 303.546875 C 159.621094 303.625 159.78125 303.832031 159.804688 304.074219 C 159.824219 304.300781 160.378906 309.679688 166.605469 310.046875 C 166.851562 310.0625 167.0625 310.21875 167.148438 310.449219 Z M 182.472656 331.96875 L 174.042969 331.96875 C 173.789062 331.96875 173.558594 331.808594 173.46875 331.566406 L 166.132812 311.238281 C 160.242188 310.6875 158.914062 306.007812 158.648438 304.585938 L 156.246094 303.769531 C 155.5 303.519531 154.5625 303.207031 154.050781 302.28125 C 153.757812 301.753906 153.796875 301.117188 154.15625 300.625 C 154.519531 300.121094 155.125 299.878906 155.730469 299.992188 L 165.804688 301.289062 C 165.832031 301.292969 165.855469 301.296875 165.878906 301.300781 C 167.332031 301.671875 169.042969 303.367188 169.730469 304.71875 L 183.019531 331.082031 C 183.113281 331.273438 183.105469 331.5 182.992188 331.679688 C 182.882812 331.859375 182.683594 331.96875 182.472656 331.96875 " fill-opacity="1" fill-rule="nonzero"/><path fill="#000000" d="M 165.976562 304.210938 C 165.960938 304.210938 165.949219 304.214844 165.941406 304.214844 C 165.953125 304.214844 165.964844 304.210938 165.976562 304.210938 Z M 166.238281 309.292969 C 166.210938 309.292969 166.183594 309.292969 166.15625 309.289062 C 165.132812 309.152344 164.394531 308.761719 163.957031 308.125 C 163.617188 307.625 163.21875 307.289062 162.777344 307.128906 C 162.105469 306.882812 161.566406 306.464844 161.171875 305.875 C 160.804688 305.332031 160.8125 304.636719 161.191406 304.097656 C 161.574219 303.558594 162.230469 303.316406 162.867188 303.480469 C 165.367188 304.125 165.890625 304.203125 165.988281 304.210938 C 166.300781 304.183594 166.582031 304.421875 166.625 304.742188 C 166.667969 305.078125 166.433594 305.382812 166.097656 305.425781 C 165.9375 305.445312 165.714844 305.476562 162.5625 304.664062 C 162.351562 304.613281 162.234375 304.746094 162.191406 304.804688 C 162.148438 304.863281 162.066406 305.019531 162.183594 305.195312 C 162.4375 305.566406 162.765625 305.820312 163.195312 305.976562 C 163.882812 306.230469 164.480469 306.71875 164.96875 307.433594 C 165.195312 307.769531 165.660156 307.988281 166.316406 308.074219 C 166.652344 308.121094 166.886719 308.425781 166.84375 308.761719 C 166.804688 309.070312 166.539062 309.292969 166.238281 309.292969 " fill-opacity="1" fill-rule="nonzero"/><path fill="#5479f7" d="M 212.445312 339.738281 L 224.902344 308.960938 C 224.902344 308.960938 220.289062 311.050781 213.210938 308.503906 C 206.136719 305.957031 198.460938 302.746094 194.414062 306.113281 L 185.960938 315.679688 L 188.550781 316.300781 L 191.636719 327.773438 L 194.671875 333.109375 C 197.257812 337.664062 201.832031 340.003906 207.066406 340.003906 L 212.445312 339.738281 " fill-opacity="1" fill-rule="nonzero"/><path fill="#5479f7" d="M 153.289062 309.347656 L 143.347656 298.753906 L 137.585938 298.238281 C 137.585938 298.238281 147.570312 310.066406 147.84375 310.871094 C 148.117188 311.675781 153.289062 309.347656 153.289062 309.347656 " fill-opacity="1" fill-rule="nonzero"/><path fill="#000000" d="M 139.011719 298.980469 C 142.125 302.679688 147.378906 308.976562 148.292969 310.433594 C 148.875 310.425781 150.613281 309.824219 152.25 309.132812 L 143.058594 299.34375 Z M 148.398438 310.613281 C 148.410156 310.636719 148.417969 310.65625 148.421875 310.671875 C 148.417969 310.652344 148.40625 310.632812 148.398438 310.613281 Z M 148.214844 311.636719 C 148.019531 311.636719 147.855469 311.609375 147.722656 311.554688 C 147.503906 311.457031 147.339844 311.285156 147.265625 311.066406 C 146.910156 310.347656 140.851562 303.054688 137.121094 298.636719 C 136.960938 298.445312 136.929688 298.179688 137.046875 297.957031 C 137.160156 297.738281 137.394531 297.609375 137.640625 297.628906 L 143.398438 298.148438 C 143.550781 298.160156 143.6875 298.226562 143.792969 298.335938 L 153.734375 308.929688 C 153.871094 309.074219 153.929688 309.273438 153.890625 309.46875 C 153.851562 309.660156 153.722656 309.824219 153.539062 309.90625 C 152.015625 310.59375 149.484375 311.636719 148.214844 311.636719 " fill-opacity="1" fill-rule="nonzero"/><path fill="#ffffff" d="M 186.851562 315.421875 C 186.851562 315.421875 195.335938 317.257812 196.660156 324.859375 L 184.519531 338.695312 C 182.574219 340.914062 179.179688 341.082031 177.023438 339.070312 L 152.128906 315.851562 L 145.644531 310.785156 C 144.089844 309.570312 143.003906 307.847656 142.578125 305.921875 L 142.5 305.410156 C 142.425781 304.941406 142.984375 304.648438 143.320312 304.976562 C 144.597656 306.199219 146.839844 308.125 149.023438 308.90625 C 150.078125 309.285156 151.078125 307.878906 150.644531 306.84375 L 149.066406 304.871094 C 148.464844 304.050781 149.464844 303.050781 150.042969 303.207031 C 151.277344 303.546875 153.242188 305.019531 153.914062 306.265625 C 154.371094 307.109375 155.304688 309.949219 156.042969 311.480469 C 156.433594 312.289062 157.042969 312.976562 157.800781 313.464844 L 177.15625 326.707031 L 186.851562 315.421875 " fill-opacity="1" fill-rule="nonzero"/><path fill="#000000" d="M 143.15625 305.660156 L 143.183594 305.828125 C 143.570312 307.574219 144.578125 309.179688 146.019531 310.304688 L 152.507812 315.371094 C 152.519531 315.382812 152.535156 315.394531 152.546875 315.40625 L 177.441406 338.625 C 178.363281 339.484375 179.5625 339.917969 180.820312 339.859375 C 182.078125 339.796875 183.226562 339.238281 184.058594 338.292969 L 196.003906 324.679688 C 194.773438 318.636719 188.601562 316.542969 187.066406 316.109375 L 177.617188 327.105469 C 177.414062 327.339844 177.066406 327.386719 176.808594 327.210938 L 157.453125 313.972656 C 156.617188 313.429688 155.933594 312.660156 155.492188 311.746094 C 155.097656 310.925781 154.652344 309.75 154.253906 308.710938 C 153.90625 307.792969 153.578125 306.925781 153.378906 306.554688 C 152.777344 305.4375 150.921875 304.082031 149.882812 303.796875 C 149.847656 303.808594 149.636719 303.933594 149.535156 304.15625 C 149.453125 304.328125 149.5 304.429688 149.558594 304.507812 L 151.121094 306.460938 C 151.15625 306.503906 151.183594 306.554688 151.207031 306.605469 C 151.527344 307.367188 151.328125 308.316406 150.714844 308.96875 C 150.1875 309.523438 149.476562 309.714844 148.816406 309.480469 C 146.726562 308.738281 144.628906 307.042969 143.15625 305.660156 Z M 180.582031 341.089844 C 179.097656 341.089844 177.699219 340.539062 176.605469 339.519531 L 151.734375 316.320312 L 145.269531 311.269531 C 143.601562 309.96875 142.4375 308.117188 141.984375 306.054688 L 141.894531 305.503906 C 141.820312 305.027344 142.046875 304.574219 142.472656 304.351562 C 142.898438 304.128906 143.398438 304.203125 143.746094 304.535156 C 144.886719 305.628906 147.109375 307.574219 149.226562 308.332031 C 149.492188 308.425781 149.714844 308.242188 149.828125 308.125 C 150.050781 307.890625 150.207031 307.488281 150.105469 307.148438 L 148.589844 305.253906 C 148.167969 304.679688 148.171875 303.964844 148.578125 303.367188 C 148.984375 302.773438 149.65625 302.464844 150.203125 302.617188 C 151.527344 302.976562 153.671875 304.523438 154.453125 305.976562 C 154.691406 306.414062 155.019531 307.277344 155.398438 308.277344 C 155.785156 309.292969 156.222656 310.441406 156.59375 311.214844 C 156.9375 311.925781 157.46875 312.523438 158.128906 312.953125 L 177.046875 325.894531 L 186.386719 315.023438 C 186.53125 314.855469 186.761719 314.777344 186.980469 314.828125 C 187.070312 314.84375 195.882812 316.839844 197.261719 324.753906 C 197.292969 324.9375 197.242188 325.125 197.121094 325.265625 L 184.976562 339.097656 C 183.925781 340.296875 182.472656 341 180.882812 341.082031 C 180.78125 341.085938 180.679688 341.089844 180.582031 341.089844 " fill-opacity="1" fill-rule="nonzero"/><path fill="#000000" d="M 218.085938 340.085938 L 188.171875 340.085938 C 187.832031 340.085938 187.558594 339.8125 187.558594 339.476562 C 187.558594 339.136719 187.832031 338.863281 188.171875 338.863281 L 218.085938 338.863281 C 218.425781 338.863281 218.699219 339.136719 218.699219 339.476562 C 218.699219 339.8125 218.425781 340.085938 218.085938 340.085938 " fill-opacity="1" fill-rule="nonzero"/><path fill="#000000" d="M 163.121094 340.085938 L 155.421875 340.085938 C 155.085938 340.085938 154.8125 339.8125 154.8125 339.476562 C 154.8125 339.136719 155.085938 338.863281 155.421875 338.863281 L 163.121094 338.863281 C 163.460938 338.863281 163.734375 339.136719 163.734375 339.476562 C 163.734375 339.8125 163.460938 340.085938 163.121094 340.085938 " fill-opacity="1" fill-rule="nonzero"/><path fill="#99b9ff" d="M 198.230469 227.484375 C 197.894531 227.484375 197.621094 227.210938 197.621094 226.875 L 197.621094 222.003906 C 197.621094 221.664062 197.894531 221.390625 198.230469 221.390625 C 198.570312 221.390625 198.84375 221.664062 198.84375 222.003906 L 198.84375 226.875 C 198.84375 227.210938 198.570312 227.484375 198.230469 227.484375 " fill-opacity="1" fill-rule="nonzero"/><path fill="#99b9ff" d="M 193.222656 228.457031 C 193.066406 228.457031 192.910156 228.394531 192.789062 228.277344 L 190.914062 226.398438 C 190.675781 226.160156 190.675781 225.773438 190.914062 225.535156 C 191.152344 225.292969 191.539062 225.292969 191.777344 225.535156 L 193.65625 227.410156 C 193.894531 227.648438 193.894531 228.039062 193.65625 228.277344 C 193.535156 228.394531 193.378906 228.457031 193.222656 228.457031 " fill-opacity="1" fill-rule="nonzero"/><path fill="#99b9ff" d="M 203.238281 228.457031 C 203.082031 228.457031 202.925781 228.394531 202.804688 228.277344 C 202.566406 228.039062 202.566406 227.648438 202.804688 227.410156 L 204.683594 225.535156 C 204.921875 225.292969 205.308594 225.292969 205.546875 225.535156 C 205.785156 225.773438 205.785156 226.160156 205.546875 226.398438 L 203.671875 228.277344 C 203.550781 228.394531 203.398438 228.457031 203.238281 228.457031 " fill-opacity="1" fill-rule="nonzero"/><path fill="#99b9ff" d="M 146.546875 269.726562 C 146.210938 269.726562 145.9375 269.453125 145.9375 269.113281 L 145.9375 264.242188 C 145.9375 263.90625 146.210938 263.632812 146.546875 263.632812 C 146.886719 263.632812 147.160156 263.90625 147.160156 264.242188 L 147.160156 269.113281 C 147.160156 269.453125 146.886719 269.726562 146.546875 269.726562 " fill-opacity="1" fill-rule="nonzero"/><path fill="#99b9ff" d="M 141.539062 270.695312 C 141.382812 270.695312 141.226562 270.636719 141.109375 270.515625 L 139.230469 268.640625 C 138.992188 268.398438 138.992188 268.011719 139.230469 267.773438 C 139.46875 267.535156 139.855469 267.535156 140.097656 267.773438 L 141.972656 269.652344 C 142.210938 269.890625 142.210938 270.277344 141.972656 270.515625 C 141.851562 270.636719 141.695312 270.695312 141.539062 270.695312 " fill-opacity="1" fill-rule="nonzero"/><path fill="#99b9ff" d="M 151.554688 270.695312 C 151.398438 270.695312 151.242188 270.636719 151.125 270.515625 C 150.886719 270.277344 150.886719 269.890625 151.125 269.652344 L 153 267.773438 C 153.238281 267.535156 153.625 267.535156 153.863281 267.773438 C 154.101562 268.011719 154.101562 268.398438 153.863281 268.640625 L 151.988281 270.515625 C 151.871094 270.636719 151.710938 270.695312 151.554688 270.695312 " fill-opacity="1" fill-rule="nonzero"/><path fill="#99b9ff" d="M 296.703125 227.484375 C 296.363281 227.484375 296.089844 227.210938 296.089844 226.875 L 296.089844 222.003906 C 296.089844 221.664062 296.363281 221.390625 296.703125 221.390625 C 297.035156 221.390625 297.3125 221.664062 297.3125 222.003906 L 297.3125 226.875 C 297.3125 227.210938 297.035156 227.484375 296.703125 227.484375 " fill-opacity="1" fill-rule="nonzero"/><path fill="#99b9ff" d="M 291.691406 228.457031 C 291.539062 228.457031 291.378906 228.394531 291.261719 228.277344 L 289.382812 226.398438 C 289.144531 226.160156 289.144531 225.773438 289.382812 225.535156 C 289.625 225.292969 290.011719 225.292969 290.25 225.535156 L 292.125 227.410156 C 292.363281 227.648438 292.363281 228.039062 292.125 228.277344 C 292.003906 228.394531 291.847656 228.457031 291.691406 228.457031 " fill-opacity="1" fill-rule="nonzero"/><path fill="#99b9ff" d="M 301.707031 228.457031 C 301.554688 228.457031 301.394531 228.394531 301.277344 228.277344 C 301.039062 228.039062 301.039062 227.648438 301.277344 227.410156 L 303.152344 225.535156 C 303.390625 225.292969 303.777344 225.292969 304.015625 225.535156 C 304.253906 225.773438 304.253906 226.160156 304.015625 226.398438 L 302.140625 228.277344 C 302.019531 228.394531 301.863281 228.457031 301.707031 228.457031 " fill-opacity="1" fill-rule="nonzero"/><path fill="#99b9ff" d="M 108.648438 350.417969 C 108.5625 350.417969 108.476562 350.402344 108.394531 350.363281 C 95.820312 344.660156 84.238281 337.519531 73.980469 329.140625 C 62.707031 319.933594 51.984375 308.351562 42.96875 295.644531 C 42.769531 295.371094 42.835938 294.988281 43.113281 294.792969 C 43.386719 294.597656 43.769531 294.664062 43.964844 294.9375 C 52.917969 307.554688 63.566406 319.054688 74.753906 328.191406 C 84.929688 336.507812 96.417969 343.589844 108.898438 349.25 C 109.207031 349.390625 109.34375 349.75 109.203125 350.058594 C 109.101562 350.285156 108.878906 350.417969 108.648438 350.417969 " fill-opacity="1" fill-rule="nonzero"/><path fill="#99b9ff" d="M 36.410156 285.179688 C 36.207031 285.179688 36.003906 285.074219 35.886719 284.886719 C 31.378906 277.476562 27.390625 269.714844 24.03125 261.8125 C 23.898438 261.503906 24.042969 261.144531 24.351562 261.011719 C 24.664062 260.878906 25.023438 261.023438 25.15625 261.335938 C 28.492188 269.179688 32.453125 276.890625 36.933594 284.25 C 37.109375 284.539062 37.015625 284.914062 36.726562 285.089844 C 36.628906 285.152344 36.519531 285.179688 36.410156 285.179688 " fill-opacity="1" fill-rule="nonzero"/><path fill="#000000" d="M 313.015625 38.804688 C 310.707031 38.804688 308.523438 37.949219 306.820312 36.367188 L 301.433594 31.1875 C 301.191406 30.957031 301.183594 30.566406 301.417969 30.324219 C 301.652344 30.082031 302.039062 30.074219 302.28125 30.304688 L 307.65625 35.476562 C 309.21875 36.929688 311.257812 37.675781 313.398438 37.574219 C 315.535156 37.472656 317.496094 36.535156 318.921875 34.9375 L 321.578125 31.9375 C 321.804688 31.683594 322.1875 31.660156 322.441406 31.882812 C 322.695312 32.109375 322.71875 32.496094 322.496094 32.746094 L 319.839844 35.75 C 318.191406 37.597656 315.925781 38.679688 313.457031 38.796875 C 313.308594 38.804688 313.160156 38.804688 313.015625 38.804688 " fill-opacity="1" fill-rule="nonzero"/><path fill="#000000" d="M 339.195312 45.074219 C 337.863281 45.074219 336.601562 44.582031 335.621094 43.667969 L 333.175781 41.425781 C 332.925781 41.199219 332.910156 40.808594 333.136719 40.558594 C 333.367188 40.3125 333.753906 40.292969 334 40.523438 L 336.449219 42.769531 C 337.253906 43.515625 338.300781 43.890625 339.394531 43.847656 C 340.492188 43.796875 341.492188 43.316406 342.222656 42.496094 L 345.347656 38.992188 C 345.570312 38.738281 345.957031 38.71875 346.207031 38.941406 C 346.460938 39.167969 346.484375 39.554688 346.257812 39.804688 L 343.136719 43.3125 C 342.1875 44.378906 340.878906 45.003906 339.453125 45.070312 C 339.367188 45.070312 339.28125 45.074219 339.195312 45.074219 " fill-opacity="1" fill-rule="nonzero"/></svg>