<svg xmlns="http://www.w3.org/2000/svg" xmlns:xlink="http://www.w3.org/1999/xlink" viewBox="0 0 2194.33 2017.57"><defs><style>.cls-1{fill:none;}.cls-2{fill:#bff0ff;}.cls-3{clip-path:url(#clip-path);}.cls-4{fill:#fdb477;}.cls-5{fill:#d98641;}.cls-6{fill:#48c6c6;}.cls-7{fill:#33201b;}.cls-8{fill:#fff;}.cls-9{fill:#4ac4d9;}.cls-10{fill:#fdfdff;}.cls-11{fill:#cffafa;}.cls-12{fill:#5b4e99;}.cls-13{fill:#ffd3ad;}.cls-14{fill:#aae0ff;}.cls-15{fill:#e6f9ff;}.cls-16{clip-path:url(#clip-path-2);}.cls-17{fill:#241f3c;}.cls-18{fill:#312a52;}.cls-19{fill:#b3e0ff;}.cls-20{fill:#b8f5e9;}.cls-21{fill:#3ba3a3;}.cls-22{fill:#00ccaf;}.cls-23{clip-path:url(#clip-path-3);}.cls-24{fill:#d9f0ff;}.cls-25{fill:#7ad0ff;}.cls-26{fill:#00bdab;}</style><clipPath id="clip-path"><rect class="cls-1" x="577.8" y="683.75" width="1012.6" height="1296"></rect></clipPath><clipPath id="clip-path-2"><rect class="cls-1" x="1532.78" y="202.25" width="411.25" height="405.13"></rect></clipPath><clipPath id="clip-path-3"><rect class="cls-1" x="42.17" y="294.92" width="630.62" height="621.23"></rect></clipPath></defs><g id="Layer_2" data-name="Layer 2"><g id="Layer_1-2" data-name="Layer 1"><g id="Layer_2-2" data-name="Layer 2"><g id="phone"><rect class="cls-2" x="575.99" y="980.95" width="1016.71" height="1001.57"></rect><g class="cls-3"><path class="cls-4" d="M1371.83,1420.32l129.66,323c-15.4,97.64-158.16,139.94-258.48,122.87L880.73,1648.35C765.41,1581.57,1037.23,1064.39,1371.83,1420.32Z"></path><path class="cls-5" d="M1065.26,1749.45s94.45-6.2,188.87,22.28c55.11,16.62,75.12-24.15,56.92-70.18-28.47-72-112.63-135.78-194.2-106.06C1045.13,1621.62,1021.87,1728.52,1065.26,1749.45Z"></path><path class="cls-4" d="M1296.81,1474s-542.07-411.2-590.25-331.55c-55.17,91.22,517.52,445.32,517.52,445.32Z"></path><path class="cls-6" d="M1269.75,1751.23l-391.15-3.31c-24.41-.2-44.11-21.07-44-46.57l3.52-845.67c.1-24.59,19.58-44.52,43.52-44.54l383.56-.23c24.13,0,43.81,20,44,44.69l4.9,849.59C1314.19,1730.82,1294.36,1751.44,1269.75,1751.23Z"></path><path class="cls-7" d="M1275.17,1745.09a38,38,0,0,1-5,.28l-391-3.72c-21-.2-38.07-18.49-38-40.75l3.39-844.74c.09-21.47,17-38.95,37.58-39l383.54-.64h1.8a37.26,37.26,0,0,1,25.38,11.65,39.07,39.07,0,0,1,10.74,26.92l4.8,850.46C1308.56,1725.76,1294.3,1742.74,1275.17,1745.09Z"></path><polygon class="cls-8" points="1289.94 861.28 1294.48 1708.78 853.97 1705.24 857.14 860.24 1289.94 861.28"></polygon><rect class="cls-9" x="893.37" y="1190.49" width="363.57" height="188.56" rx="9.44"></rect><path class="cls-8" d="M1221,1244.38H922.76a.45.45,0,0,1-.5-.37.43.43,0,0,1,.37-.5H1221a.43.43,0,0,1,.37.5A.45.45,0,0,1,1221,1244.38Z"></path><path class="cls-8" d="M1221,1307.6H922.76a.44.44,0,0,1-.44-.44.44.44,0,0,1,.44-.44H1221a.43.43,0,0,1,.43.43h0A.44.44,0,0,1,1221,1307.6Z"></path><path class="cls-8" d="M1221,1276.81H922.76a.44.44,0,0,1-.44-.44.44.44,0,0,1,.44-.44H1221a.44.44,0,0,1,0,.88Z"></path><path class="cls-8" d="M1221,1339.64H921.89l-.38-112.73a.87.87,0,0,1,.87-.88h0a.87.87,0,0,1,.87.87h0l.38,111H1221a.88.88,0,0,1,0,1.76Z"></path><path class="cls-8" d="M1076.64,1255.56l-67.83,65.2-35-30.93-51.69,48.29a.88.88,0,0,0,0,1.24.86.86,0,0,0,.64.28.89.89,0,0,0,.6-.24l50.52-47.2,35,30.94,67.78-65.15Z"></path><path class="cls-8" d="M978.57,1291.13a4.71,4.71,0,1,1-4.71-4.71h0a4.69,4.69,0,0,1,4.7,4.7Z"></path><path class="cls-8" d="M1014.1,1321.5a4.71,4.71,0,1,1-4.71-4.71h0A4.71,4.71,0,0,1,1014.1,1321.5Z"></path><path class="cls-8" d="M1081.91,1256.05a4.71,4.71,0,1,1-4.71-4.71h0A4.71,4.71,0,0,1,1081.91,1256.05Z"></path><rect class="cls-9" x="894.35" y="956.38" width="174.82" height="140.08" rx="9.44"></rect><path class="cls-10" d="M1061.08,1066.69H911.32V963.43a.8.8,0,0,1,1.6,0v101.66h148.16a.79.79,0,0,1,.8.79.8.8,0,0,1-.79.81Z"></path><rect class="cls-10" x="926.23" y="1034.27" width="16.53" height="31.62"></rect><rect class="cls-10" x="949.27" y="1027.07" width="16.53" height="38.82"></rect><rect class="cls-10" x="972.32" y="1012.46" width="16.53" height="53.43"></rect><rect class="cls-10" x="995.36" y="1002.26" width="16.53" height="63.63"></rect><rect class="cls-10" x="1018.41" y="980.24" width="16.53" height="85.65"></rect><rect class="cls-9" x="1082.12" y="956.38" width="174.82" height="140.08" rx="9.44"></rect><path class="cls-10" d="M1248.85,1066.69H1099.1V969a.8.8,0,1,1,1.59-.18.54.54,0,0,1,0,.18v96h148.16a.8.8,0,0,1,.8.8.82.82,0,0,1-.8.8Z"></path><path class="cls-10" d="M1099.89,1065.89c25.09-2.18,28.59-103.06,65.81-57.83,35.36,43,37.22-36.82,75.64-36.82V1065Z"></path><path class="cls-6" d="M1257.07,943.16H894.52V912.28h362.55Zm-361.68-.87H1256.2V913.15H895.39Z"></path><rect class="cls-6" x="982.71" y="922.53" width="60.18" height="10.38"></rect><rect class="cls-6" x="1048.82" y="922.53" width="31.13" height="10.38"></rect><rect class="cls-6" x="901.18" y="922.53" width="73.52" height="10.38"></rect><rect class="cls-11" x="895.55" y="1116.15" width="172.54" height="9.78"></rect><rect class="cls-11" x="895.55" y="1152.17" width="150.9" height="9.78"></rect><rect class="cls-11" x="895.55" y="1133.93" width="261.77" height="9.78"></rect><path class="cls-6" d="M1072.12,1443.59H1072a101.11,101.11,0,1,0,46.89,190.7l-46.74-89.59Z"></path><path class="cls-12" d="M1118.86,1634.28a101.09,101.09,0,0,0,54.21-89.59h-101Z"></path><path class="cls-11" d="M1072.12,1443.59v101.1h101A101.09,101.09,0,0,0,1072.12,1443.59Z"></path><path class="cls-4" d="M1430,1754.55c-234.86-16.15-171.47-359-171.47-359s-84-108.58-71.56-176,48.44-54.38,48.44-54.38,2,2.72,5.62,7.78c6.82,9.54,19.45,27.4,35.37,51,45.35,67.2,117.35,180.77,157.76,280.11C1471.2,1599.39,1506.67,1759.8,1430,1754.55Z"></path><path class="cls-13" d="M1275.26,1223c-6.61,4.43-17.23,11-27.71,14.88-26.72-30.3-9.73-62.24-7.66-65.85C1246.71,1181.51,1259.34,1199.38,1275.26,1223Z"></path><path class="cls-4" d="M838.26,1593.81c-12.89-3.73-28.45-15.38-46-37.81-2.48-3.17-4.73-6.28-6.78-9.34-58.61-87.07,49.66-130,49.66-130s9.83,36.21,25.59,64.11C893.15,1538.11,879,1605.58,838.26,1593.81Z"></path><path class="cls-13" d="M830.65,1581.53c-8.91-2.58-19.66-10.63-31.81-26.13-1.72-2.19-3.27-4.34-4.69-6.45,1.87-5.4,6.17-13.54,16-22.86C834,1528,836.43,1569.34,830.65,1581.53Z"></path><path class="cls-4" d="M844.2,1740.45c-11.51,1.47-27.08-6.88-45.51-30.41a116.83,116.83,0,0,1-7.3-10.39c-41.12-65.83,40.74-98.28,40.74-98.28s7.65,28.25,20,50C874.65,1691.25,868.34,1737.39,844.2,1740.45Z"></path><path class="cls-13" d="M839.33,1729.56c-8.54,1.08-20.09-5.11-33.76-22.56a84,84,0,0,1-5.41-7.71c2.69-5.22,7.17-11.67,14.62-18.77C835.49,1682.22,841.17,1711.48,839.33,1729.56Z"></path><path class="cls-4" d="M843.15,1489.83c-13.73-2-30.91-13.65-50.66-38.85-1.23-1.56-2.39-3.11-3.5-4.64-65.77-90.2,46.37-134.67,46.37-134.67s9.84,36.21,25.6,64.09C892.14,1430.87,880.28,1495.35,843.15,1489.83Z"></path><path class="cls-13" d="M834.53,1476.78c-9.13-1.35-20.55-9.08-33.68-25.83-.82-1-1.59-2.07-2.33-3.09,1.53-5.13,5.49-13.58,15.79-23.39C836.65,1426.3,839.48,1463.94,834.53,1476.78Z"></path></g><circle class="cls-14" cx="921.66" cy="754.12" r="15.66"></circle><path class="cls-14" d="M866.24,705.05l-6.65-7.57c37.28-37.41,95.38-36,130.83,3.09l-7,7.23C951.63,672.85,899.65,671.62,866.24,705.05Z"></path><path class="cls-14" d="M880,720.76l-6.65-7.57c29.25-29.14,74.64-28.07,102.47,2.4l-7,7.23C944.69,696.53,905.42,695.6,880,720.76Z"></path><path class="cls-14" d="M893.4,736l-6.64-7.57c21.48-21.13,54.55-20.36,75,1.72l-7,7.24C938,719.44,911,718.82,893.4,736Z"></path></g><g id="icons"><g id="machine_Arm_02" data-name="machine Arm 02"><rect class="cls-15" x="1532.78" y="202.25" width="411.25" height="405.13"></rect><g class="cls-16"><rect class="cls-17" x="1841.99" y="336.26" width="11.06" height="51.26"></rect><path class="cls-6" d="M1854.23,371.87h-13a10.24,10.24,0,0,0-3.76,8v9.37H1858v-9.38A10.23,10.23,0,0,0,1854.23,371.87Z"></path><path class="cls-17" d="M1837.07,392.26h0a5.19,5.19,0,0,0-5.19,5.2,5.25,5.25,0,0,0,.32,1.8l10.42,27.79a1.66,1.66,0,0,0,1.86,1h0a1.64,1.64,0,0,0,1.3-1.8l-3.55-29.47A5.19,5.19,0,0,0,1837.07,392.26Z"></path><path class="cls-17" d="M1858.89,392.26h0a5.21,5.21,0,0,1,5.19,5.23,5.37,5.37,0,0,1-.32,1.77l-10.43,27.79a1.63,1.63,0,0,1-1.85,1h0a1.63,1.63,0,0,1-1.3-1.8l3.54-29.47A5.19,5.19,0,0,1,1858.89,392.26Z"></path><rect class="cls-17" x="1835.73" y="389.16" width="24.22" height="2.94"></rect><path class="cls-17" d="M1842.32,392.41A2.37,2.37,0,1,1,1840,390h0A2.36,2.36,0,0,1,1842.32,392.41Z"></path><path class="cls-17" d="M1858,392.41a2.37,2.37,0,1,1-2.37-2.37h0A2.37,2.37,0,0,1,1858,392.41Z"></path><rect class="cls-17" x="1794.62" y="327.77" width="52.75" height="16.97"></rect><path class="cls-6" d="M1801,354.83h-34.17a18.58,18.58,0,0,1-18.58-18.56h0a18.58,18.58,0,0,1,18.58-18.58H1801Z"></path><path class="cls-6" d="M1845.31,354.83h-24.08V317.68h24.08a18.58,18.58,0,0,1,18.58,18.58h0a18.57,18.57,0,0,1-18.57,18.57Z"></path><path class="cls-17" d="M1849.69,345.12a9.79,9.79,0,1,1,5.24-12.82h0A9.8,9.8,0,0,1,1849.69,345.12Zm-6-14.25a5.67,5.67,0,1,0,7.43,3v0a5.66,5.66,0,0,0-7.4-3Z"></path><rect class="cls-17" x="1673.32" y="367.39" width="11.33" height="54.27" transform="translate(54.57 974.12) rotate(-32.86)"></rect><path class="cls-17" d="M1605.09,442.21h0a14.8,14.8,0,0,1,4.44-20.45l76.11-49,16,24.88-76.12,49A14.79,14.79,0,0,1,1605.09,442.21Z"></path><path class="cls-6" d="M1695.08,421.22l82.35-61a24.93,24.93,0,0,0,6.07-33.6h0a24.92,24.92,0,0,0-33.17-8.12l-89,50.42Z"></path><path class="cls-17" d="M1771.21,353.68a16,16,0,1,1,4.69-22.14l0,0A16,16,0,0,1,1771.21,353.68Zm-13.74-21.17a9.26,9.26,0,1,0,12.81,2.73h0a9.26,9.26,0,0,0-12.8-2.72Z"></path><path class="cls-6" d="M1727.11,569.9h0a48,48,0,0,1-67.71-4.8l0,0-78.86-91a48,48,0,0,1,4.8-67.72h0a48,48,0,0,1,67.71,4.8l0,0,78.86,90.94a48,48,0,0,1-4.74,67.71Z"></path><path class="cls-17" d="M1598.38,421.44a25.29,25.29,0,1,0,35.67,2.54h0A25.29,25.29,0,0,0,1598.38,421.44ZM1624.85,452a15.12,15.12,0,1,1,1.52-21.33,15.12,15.12,0,0,1-1.52,21.33Z"></path><path class="cls-17" d="M1700.8,497.63h0a43.63,43.63,0,0,1,43.63,43.63h0v37.43h-87.26V541.26a43.63,43.63,0,0,1,43.63-43.63Z"></path><path class="cls-6" d="M1688.28,525.63a19.85,19.85,0,1,0,28,2h0a19.84,19.84,0,0,0-28-2Zm20.78,24a11.87,11.87,0,1,1,1.19-16.75h0a11.87,11.87,0,0,1-1.19,16.7Z"></path><path class="cls-18" d="M1785.23,621.11H1618.69V597.8A21.33,21.33,0,0,1,1640,576.48h123.9a21.33,21.33,0,0,1,21.32,21.32Z"></path><rect class="cls-17" x="1591.34" y="607.45" width="220.98" height="44.63"></rect></g></g><g><path class="cls-6" d="M1987.57,846.35h-90.49a12.83,12.83,0,0,1-12.83-12.81v0h0a12.81,12.81,0,0,1,12.81-12.83h90.51a12.82,12.82,0,0,1,12.83,12.83h0A12.83,12.83,0,0,1,1987.57,846.35Z"></path><path class="cls-6" d="M1987.57,893h-90.49a12.83,12.83,0,0,1-12.83-12.83h0a12.81,12.81,0,0,1,12.81-12.83h90.51a12.82,12.82,0,0,1,12.83,12.83h0A12.85,12.85,0,0,1,1987.57,893Z"></path><path class="cls-6" d="M1987.57,939.54h-90.49a12.83,12.83,0,0,1-12.83-12.81v0h0a12.82,12.82,0,0,1,12.83-12.83h90.49a12.84,12.84,0,0,1,12.83,12.83h0A12.83,12.83,0,0,1,1987.57,939.54Z"></path><path class="cls-6" d="M1702,1230.84a225.9,225.9,0,0,1-105.25,25.85c-125.34,0-226.94-101.6-226.94-226.93s101.6-226.94,226.94-226.94h.34V912.89a116.87,116.87,0,1,0,54.06,220.5Z"></path><path class="cls-12" d="M1823.65,1029.76A226.94,226.94,0,0,1,1702,1230.84l-50.85-97.45a116.87,116.87,0,0,0,62.8-103.63Z"></path><path class="cls-11" d="M1823.65,1029.76H1713.92a116.85,116.85,0,0,0-116.85-116.87h0V802.82C1722.23,803,1823.65,904.54,1823.65,1029.76Z"></path></g><g><rect class="cls-19" x="1845.64" y="1215.52" width="348.69" height="330.22"></rect><rect class="cls-10" x="1908.09" y="1395.3" width="32.97" height="95.28"></rect><rect class="cls-10" x="1954.06" y="1380.93" width="32.97" height="109.65"></rect><rect class="cls-10" x="2000.02" y="1351.79" width="32.97" height="138.79"></rect><rect class="cls-10" x="2045.98" y="1331.44" width="32.97" height="159.14"></rect><rect class="cls-10" x="2091.94" y="1287.54" width="32.97" height="203.04"></rect></g><g id="world"><circle class="cls-6" cx="1859.44" cy="1819.06" r="172.1"></circle><path class="cls-8" d="M1997.66,1750q-2.58-5.16-5.54-10.09a154.59,154.59,0,0,0-131.2-75.39h-2.73a154.54,154.54,0,0,0-131.43,75.39q-3,4.92-5.53,10.09a154.29,154.29,0,0,0,.9,139.85c1.77,3.43,3.68,6.8,5.71,10.08a154.56,154.56,0,0,0,130.23,73.6h2.85A154.51,154.51,0,0,0,1991,1900c2-3.28,3.94-6.65,5.73-10.08a154.35,154.35,0,0,0,.9-139.85Zm-12.38,139.85q-2.91,5.16-6.25,10.08a145,145,0,0,1-73.57,56h0a143.83,143.83,0,0,1-41,7.42c-1.24,0-2.48.08-3.74.08h-2.45c-1.31,0-2.61,0-3.9-.08a143.68,143.68,0,0,1-35.24-5.62,145.17,145.17,0,0,1-79.31-57.81q-3.33-4.9-6.25-10.08a143.44,143.44,0,0,1-18.49-65.78c-.07-1.67-.1-3.35-.1-5s0-3.36.1-5a143.32,143.32,0,0,1,17.48-64q2.84-5.18,6.07-10.09a145,145,0,0,1,80.56-59.61,142.71,142.71,0,0,1,35.18-5.6c1.29,0,2.59-.09,3.9-.09h2.45c1.26,0,2.5,0,3.74.09a142.4,142.4,0,0,1,41,7.42h0a145,145,0,0,1,74.76,57.79q3.22,4.89,6.07,10.09a143.32,143.32,0,0,1,17.48,64c.07,1.68.1,3.36.1,5s0,3.38-.1,5a143.32,143.32,0,0,1-18.49,65.82Z"></path><rect class="cls-8" x="1709.97" y="1814.01" width="298.94" height="10.09"></rect><path class="cls-8" d="M1997.66,1750H1721.23q2.57-5.16,5.53-10.09h265.36Q1995.07,1744.88,1997.66,1750Z"></path><path class="cls-8" d="M1996.76,1889.88c-1.79,3.43-3.7,6.8-5.73,10.08H1727.84c-2-3.28-3.94-6.65-5.71-10.08Z"></path><path class="cls-8" d="M1997.66,1750q-2.58-5.16-5.54-10.09a154.59,154.59,0,0,0-131.2-75.39h-2.73a154.54,154.54,0,0,0-131.43,75.39q-3,4.92-5.53,10.09a154.29,154.29,0,0,0,.9,139.85c1.77,3.43,3.68,6.8,5.71,10.08a154.56,154.56,0,0,0,130.23,73.6h2.85A154.51,154.51,0,0,0,1991,1900c2-3.28,3.94-6.65,5.73-10.08a154.35,154.35,0,0,0,.9-139.85Zm-12.38,139.85q-2.91,5.16-6.25,10.08a145,145,0,0,1-73.57,56h0a143.83,143.83,0,0,1-41,7.42c-1.24,0-2.48.08-3.74.08h-2.45c-1.31,0-2.61,0-3.9-.08a143.68,143.68,0,0,1-35.24-5.62,145.17,145.17,0,0,1-79.31-57.81q-3.33-4.9-6.25-10.08a143.44,143.44,0,0,1-18.49-65.78c-.07-1.67-.1-3.35-.1-5s0-3.36.1-5a143.32,143.32,0,0,1,17.48-64q2.84-5.18,6.07-10.09a145,145,0,0,1,80.56-59.61,142.71,142.71,0,0,1,35.18-5.6c1.29,0,2.59-.09,3.9-.09h2.45c1.26,0,2.5,0,3.74.09a142.4,142.4,0,0,1,41,7.42h0a145,145,0,0,1,74.76,57.79q3.22,4.89,6.07,10.09a143.32,143.32,0,0,1,17.48,64c.07,1.68.1,3.36.1,5s0,3.38-.1,5a143.32,143.32,0,0,1-18.49,65.82Z"></path><rect class="cls-8" x="1854.39" y="1669.59" width="10.09" height="298.94"></rect><path class="cls-8" d="M1774.74,1819.06c0-39.89,7.24-77.16,20.4-104.93,15.37-32.44,37.6-49.59,64.3-49.59v10.09c-49,0-74.61,72.65-74.61,144.43s25.63,144.42,74.61,144.42v10.09C1801.24,1973.57,1774.74,1893.48,1774.74,1819.06Z"></path><path class="cls-8" d="M1859.44,1973.57v-10.09c56.47,0,82.19-74.86,82.19-144.42s-25.72-144.43-82.19-144.43v-10.09c63.4,0,92.28,80.1,92.28,154.52S1922.84,1973.57,1859.44,1973.57Z"></path><path class="cls-8" d="M2003.09,1994.72H1862.56V1820.44h140.53Z"></path><rect class="cls-6" x="1890.32" y="1847.81" width="136" height="169.76"></rect><rect class="cls-8" x="1911.48" y="1875.69" width="70.35" height="11.04"></rect><rect class="cls-8" x="1911.48" y="1901.62" width="91.15" height="11.04"></rect><rect class="cls-8" x="1911.48" y="1927.56" width="91.15" height="11.04"></rect><rect class="cls-8" x="1911.48" y="1953.5" width="91.15" height="11.04"></rect><rect class="cls-8" x="1911.48" y="1979.44" width="91.15" height="11.04"></rect></g><g id="factory"><rect class="cls-20" x="791.24" y="64.86" width="533.11" height="505.53"></rect><polygon class="cls-18" points="1148.61 570.69 1148.61 497.01 1104.94 372.91 1104.94 299.85 1012.01 299.85 1012.01 372.91 968.34 497.01 968.34 570.69 1148.61 570.69"></polygon><rect class="cls-18" x="1006.41" y="299.57" width="102.83" height="4.29"></rect><polygon class="cls-6" points="1433.04 559.42 1433.04 375.7 1338.06 304.19 1246.91 375.7 1055.41 375.7 1055.41 559.42 1433.04 559.42"></polygon><rect class="cls-18" x="1075.58" y="426.26" width="40.27" height="38.01"></rect><rect class="cls-18" x="1125.21" y="426.26" width="40.26" height="38.01"></rect><rect class="cls-21" x="1075.58" y="487.5" width="40.27" height="68.17"></rect><rect class="cls-21" x="1118.06" y="487.5" width="40.27" height="68.17"></rect><rect class="cls-21" x="1173.11" y="487.5" width="40.27" height="68.17"></rect><rect class="cls-21" x="1215.6" y="487.5" width="40.27" height="68.17"></rect><rect class="cls-21" x="1269.11" y="487.5" width="40.27" height="68.17"></rect><rect class="cls-21" x="1311.6" y="487.5" width="40.27" height="68.17"></rect><rect class="cls-21" x="1373.38" y="487.5" width="40.27" height="68.17"></rect><rect class="cls-18" x="1174.84" y="426.26" width="40.27" height="38.01"></rect><rect class="cls-18" x="1224.47" y="426.26" width="40.26" height="38.01"></rect><rect class="cls-18" x="1274.11" y="426.26" width="40.27" height="38.01"></rect><rect class="cls-18" x="1323.74" y="426.26" width="40.26" height="38.01"></rect><rect class="cls-18" x="1373.37" y="426.26" width="40.27" height="38.01"></rect><polygon class="cls-6" points="1236.61 383.4 1181.76 383.4 1184.52 327.93 1185.92 299.84 1189.25 232.95 1229.12 232.95 1232.45 299.84 1233.85 327.93 1236.61 383.4"></polygon><polygon class="cls-6" points="1162 383.4 1115.72 383.4 1118.48 327.93 1119.88 299.84 1122.04 256.44 1155.68 256.44 1157.84 299.84 1159.24 327.93 1162 383.4"></polygon><rect class="cls-6" x="1185.66" y="232.79" width="47.9" height="2.81"></rect><rect class="cls-6" x="1118.44" y="256.06" width="41.74" height="2.81"></rect><rect class="cls-6" x="1032.44" y="556.53" width="421.28" height="14.16"></rect><polygon class="cls-8" points="1017.65 571.15 1017.65 497.01 994.97 432.54 973.98 372.91 973.98 299.85 881.04 299.85 881.04 372.91 860.06 432.54 837.38 497.01 837.38 571.15 1017.65 571.15"></polygon><rect class="cls-8" x="875.45" y="299.57" width="102.83" height="4.29"></rect><polygon class="cls-6" points="994.97 432.54 860.06 432.54 881.04 372.91 881.04 344.64 973.98 344.64 973.98 372.91 994.97 432.54"></polygon><polygon class="cls-8" points="1157.84 299.84 1159.24 327.93 1118.48 327.93 1119.88 299.84 1157.84 299.84"></polygon><polygon class="cls-8" points="1233.85 327.93 1184.52 327.93 1185.92 299.84 1232.45 299.84 1233.85 327.93"></polygon><circle class="cls-8" cx="1205.94" cy="201.42" r="17.62"></circle><circle class="cls-8" cx="1194.45" cy="172.31" r="25.28" transform="translate(578.16 1209.89) rotate(-67.5)"></circle><circle class="cls-8" cx="1169.17" cy="132.48" r="36.77" transform="translate(248.77 865.53) rotate(-45)"></circle><circle class="cls-8" cx="1140.84" cy="89.63" r="57.45" transform="translate(9.92 264.46) rotate(-13.28)"></circle><circle class="cls-8" cx="1127.24" cy="228.34" r="17.62"></circle><circle class="cls-8" cx="1115.75" cy="199.23" r="25.28"></circle><circle class="cls-8" cx="1090.47" cy="159.4" r="36.77" transform="translate(206.68 817.77) rotate(-45)"></circle><circle class="cls-8" cx="1062.13" cy="116.51" r="57.45" transform="translate(742.37 1136.04) rotate(-78.85)"></circle><circle class="cls-8" cx="1021.74" cy="73.02" r="73.02" transform="translate(247.63 743.87) rotate(-45)"></circle><path class="cls-22" d="M916.74,36.46A78.74,78.74,0,0,0,838,115.2c0,43.48,78.74,118.48,78.74,118.48s78.73-75,78.73-118.48a78.72,78.72,0,0,0-78.72-78.74Zm0,100.52a26.76,26.76,0,1,1,26.75-26.77v0A26.76,26.76,0,0,1,916.74,137h0Z"></path></g><g id="machine_Arm_01" data-name="machine Arm 01"><g class="cls-23"><rect class="cls-24" x="42.17" y="294.92" width="630.62" height="621.23"></rect><path class="cls-6" d="M165.43,218.69H299.66A37.26,37.26,0,0,1,336.92,256h0a37.26,37.26,0,0,1-37.26,37.26H165.43A37.26,37.26,0,0,1,128.17,256h0A37.26,37.26,0,0,1,165.43,218.69Z"></path><rect class="cls-17" x="218.33" y="339.37" width="25.01" height="111.61"></rect><rect class="cls-17" x="273.74" y="612.81" width="111.61" height="25.01" transform="translate(-355.54 451.32) rotate(-47.96)"></rect><rect class="cls-17" x="237.03" y="701.99" width="25.01" height="74.96" transform="translate(-7.99 2.74) rotate(-0.62)"></rect><path class="cls-6" d="M230.83,238.48h0a25,25,0,0,1,25,25V344.3a25,25,0,0,1-25,25h0a25,25,0,0,1-25-25V263.46A25,25,0,0,1,230.83,238.48Z"></path><path class="cls-17" d="M225.09,330.78a14.59,14.59,0,1,0,19.18,7.61A14.59,14.59,0,0,0,225.09,330.78Z"></path><path class="cls-17" d="M158,237.61a19.06,19.06,0,1,0,24.94,10.21h0A19.07,19.07,0,0,0,158,237.61Z"></path><path class="cls-17" d="M292.11,238.63a19,19,0,1,0,25,10l0,0A19.07,19.07,0,0,0,292.11,238.63Z"></path><path class="cls-6" d="M340.2,609.19,211.53,491.47a48.42,48.42,0,0,1-3-68.39h0a48.43,48.43,0,0,1,68.4-3L405.55,537.76a48.42,48.42,0,0,1,3,68.39h0A48.4,48.4,0,0,1,340.2,609.19Z"></path><path class="cls-17" d="M253.16,431.66a24.76,24.76,0,1,0,15,31.65A24.75,24.75,0,0,0,253.16,431.66Z"></path><path class="cls-17" d="M380.82,550.25a24.75,24.75,0,1,0,15.29,31.49A24.73,24.73,0,0,0,380.82,550.25Z"></path><path class="cls-6" d="M332.5,662.29l-62.76,70.14a26.12,26.12,0,0,1-36.88,2.05h0a26.13,26.13,0,0,1-2-36.89l62.76-70.15a26.13,26.13,0,0,1,36.89-2.05h0a26.12,26.12,0,0,1,2,36.88Z"></path><path class="cls-17" d="M239.69,711.18a10.74,10.74,0,1,0,13.66-6.64h0A10.73,10.73,0,0,0,239.69,711.18Z"></path><path class="cls-17" d="M304.61,640.39a10.74,10.74,0,1,0,13.67-6.64A10.73,10.73,0,0,0,304.61,640.39Z"></path><rect class="cls-17" x="236.5" y="816.98" width="24.72" height="10.38"></rect><rect class="cls-17" x="241.43" y="822.94" width="14.86" height="15.52"></rect><rect class="cls-17" x="236.5" y="816.98" width="24.72" height="10.38"></rect><path class="cls-17" d="M261.79,841.87h0L260,840.09a14.86,14.86,0,0,0-10.4-4.22h0a14.92,14.92,0,0,0-10.4,4.22l-1.83,1.78h0v12.28h0l1.87,1.8a15.06,15.06,0,0,0,10.32,4.13h.13A15,15,0,0,0,259.92,856l1.88-1.8h0Z"></path><rect class="cls-17" x="242.47" y="852.33" width="14.14" height="9.92"></rect><polygon class="cls-17" points="246.65 845.37 246.65 887.76 249.44 890.5 252.41 887.76 252.41 845.37 246.65 845.37"></polygon><polygon class="cls-6" points="263.78 822.13 233.93 822.13 218.63 805.46 279.08 805.46 263.78 822.13"></polygon><polygon class="cls-6" points="232.84 758.04 264.87 758.04 281.3 769.36 216.41 769.36 232.84 758.04"></polygon><rect class="cls-17" x="214.44" y="767.07" width="68.82" height="39.37"></rect></g><circle class="cls-14" cx="230.27" cy="249.68" r="15.66"></circle><path class="cls-14" d="M174.85,200.61,168.2,193c37.27-37.42,95.38-36,130.83,3.08l-7,7.24C260.24,168.41,208.26,167.17,174.85,200.61Z"></path><path class="cls-14" d="M188.65,216.32,182,208.75c29.25-29.14,74.64-28.07,102.47,2.39l-7,7.23C253.3,192.08,214,191.16,188.65,216.32Z"></path><path class="cls-14" d="M202,231.53,195.36,224c21.48-21.13,54.56-20.36,75,1.72l-7,7.23C246.58,215,219.62,214.38,202,231.53Z"></path></g><g id="cloud"><g id="cloud-2"><path class="cls-6" d="M612.25,1664.41a142.15,142.15,0,0,0-271.8-74.52,99.26,99.26,0,0,0-165.36,74.16H156.55c-52.77,0-95.94,43.17-95.94,95.94h0c0,52.77,43.17,95.94,95.94,95.94H605.17c52.76,0,95.94-43.17,95.94-95.94h0C701.11,1709.61,661.73,1668.07,612.25,1664.41Z"></path></g><polygon class="cls-12" points="390.56 1886.7 390.56 1822.98 374.36 1822.98 374.36 1886.7 139.99 1886.7 139.99 1900.98 637.89 1900.98 637.89 1886.7 390.56 1886.7"></polygon><rect class="cls-25" x="289.25" y="1642.96" width="195.56" height="176.91"></rect><rect class="cls-8" x="280.96" y="1642.96" width="212.14" height="53.4" rx="6.58"></rect><rect class="cls-25" x="289.97" y="1656.58" width="20.97" height="28.29"></rect><rect class="cls-25" x="321.43" y="1656.58" width="20.97" height="28.29"></rect><rect class="cls-25" x="352.89" y="1656.58" width="20.97" height="28.29"></rect><rect class="cls-8" x="280.96" y="1706.37" width="212.14" height="53.4" rx="6.58"></rect><rect class="cls-25" x="289.97" y="1719.99" width="20.97" height="28.29"></rect><rect class="cls-25" x="321.43" y="1719.99" width="20.97" height="28.29"></rect><rect class="cls-25" x="352.89" y="1719.99" width="20.97" height="28.29"></rect><rect class="cls-8" x="280.96" y="1769.78" width="212.14" height="53.4" rx="6.58"></rect><rect class="cls-25" x="289.97" y="1783.4" width="20.97" height="28.29"></rect><rect class="cls-25" x="321.43" y="1783.4" width="20.97" height="28.29"></rect><rect class="cls-25" x="352.89" y="1783.4" width="20.97" height="28.29"></rect><rect class="cls-12" x="345.39" y="1874.73" width="74.97" height="36.17"></rect><path class="cls-8" d="M183.92,1447.38c-20.44,21.5-52.94,39-87.65,46.36,0,2.3-.17,15.07-.82,73.9-.87,78.49,73.91,117.33,85.53,123.29,11.32-5.09,87.56-42.89,88.43-121.37.65-58.84.8-71.6.82-73.91C235.7,1487.56,203.88,1469.33,183.92,1447.38Z"></path><path class="cls-26" d="M183.62,1461.56c-20,18-47.63,32.1-78,39.68l-.74,66.5c-.33,30.42,11.63,58,35.56,82a172.72,172.72,0,0,0,40.71,30l1.16-.59,1.44-217.53A.38.38,0,0,0,183.62,1461.56Z"></path><path class="cls-26" d="M183.79,1461.72l-1.44,217.53a173,173,0,0,0,40.22-28.55c24.46-23.49,37-50.83,37.37-81.26l.73-66.5C230.61,1494.73,203.37,1480.1,183.79,1461.72Z"></path><path class="cls-8" d="M145.62,1551.58v53.65c0,6,72.94,6,72.94,0v-53.65Zm40.16,28.49v15.21a3.69,3.69,0,0,1-7.38,0h0V1580a9,9,0,1,1,7.38,0Z"></path><path class="cls-8" d="M212.18,1547.75H204.8v-3.61a22.7,22.7,0,0,0-45.4,0v3.61H152v-3.61a30.09,30.09,0,0,1,60.17,0Z"></path></g><g id="message"><path class="cls-6" d="M74.48,1302,6.26,1250.56H155.38L87.51,1302A10.82,10.82,0,0,1,74.48,1302Z"></path><path class="cls-6" d="M161.64,1259.11v103.76H0V1259.11l72.45,54.34a14.24,14.24,0,0,0,17.09,0Z"></path><rect class="cls-22" x="464.84" y="887.32" width="275.09" height="136.55" rx="22.65"></rect><polygon class="cls-22" points="694.53 1001.8 694.53 1063.41 631.74 1000.62 694.53 1001.8"></polygon><circle class="cls-8" cx="517.48" cy="956.86" r="11.99"></circle><circle class="cls-8" cx="557.65" cy="956.8" r="11.99"></circle><circle class="cls-8" cx="597.88" cy="956.82" r="11.99"></circle><circle class="cls-8" cx="638.05" cy="956.8" r="11.99"></circle><circle class="cls-8" cx="678.24" cy="956.87" r="11.99"></circle><path class="cls-14" d="M207.78,1070.88a69,69,0,0,0-1.6,26.77l7.52-1a62.06,62.06,0,0,0,8,23l-6.52,3.83A69.13,69.13,0,0,0,233,1143.54l1-1.33,3.56-4.69a61.82,61.82,0,0,0,21.9,10.61l-1.9,7.35a68.64,68.64,0,0,0,26.77,1.57l-1-7.51a61.72,61.72,0,0,0,23-7.94l3.84,6.52a69.66,69.66,0,0,0,20.07-17.81h0l-1.73-1.34-4.27-3.25a61.35,61.35,0,0,0,10.61-21.87l7.35,1.9a68.61,68.61,0,0,0,1.57-26.8l-7.51,1a61.55,61.55,0,0,0-7.94-23l6.52-3.84A69.42,69.42,0,0,0,317,1033l-4.59,6a61.39,61.39,0,0,0-21.88-10.61l1.91-7.35a68.41,68.41,0,0,0-26.8-1.57l1,7.51a61.55,61.55,0,0,0-23,7.94l-3.83-6.52a68.85,68.85,0,0,0-20.07,17.82h0l4,3,2,1.53a61.31,61.31,0,0,0-10.61,21.88Zm34.71,9a33.55,33.55,0,1,1,24,40.91h0a33.54,33.54,0,0,1-24-40.89Z"></path><path class="cls-14" d="M544.43,1443.61v-86.23a80.7,80.7,0,0,1,0-161.29v-86.31a160.25,160.25,0,0,0-19.69,1.55l2.45,18.08a147.88,147.88,0,0,0-55.27,19.11l-9.22-15.69a165.75,165.75,0,0,0-48.29,42.86l.12.1,9.55,7.27,4.83,3.68a148.34,148.34,0,0,0-25.52,52.63l-17.67-4.59a166.05,166.05,0,0,0-3.85,64.4l18.08-2.46a149.82,149.82,0,0,0,19.16,55.36l-15.69,9.22a166.93,166.93,0,0,0,42.79,48.27l2.48-3.22,8.57-11.28A148.43,148.43,0,0,0,510,1420.6l-4.59,17.68A166.37,166.37,0,0,0,544.43,1443.61Z"></path></g></g></g></g></g></svg>