<?xml version="1.0" encoding="utf-8"?>
<!-- Generator: Adobe Illustrator 24.2.3, SVG Export Plug-In . SVG Version: 6.00 Build 0)  -->
<!DOCTYPE svg PUBLIC "-//W3C//DTD SVG 1.1//EN" "http://www.w3.org/Graphics/SVG/1.1/DTD/svg11.dtd" [
	<!ENTITY ns_extend "http://ns.adobe.com/Extensibility/1.0/">
	<!ENTITY ns_ai "http://ns.adobe.com/AdobeIllustrator/10.0/">
	<!ENTITY ns_graphs "http://ns.adobe.com/Graphs/1.0/">
	<!ENTITY ns_vars "http://ns.adobe.com/Variables/1.0/">
	<!ENTITY ns_imrep "http://ns.adobe.com/ImageReplacement/1.0/">
	<!ENTITY ns_sfw "http://ns.adobe.com/SaveForWeb/1.0/">
	<!ENTITY ns_custom "http://ns.adobe.com/GenericCustomNamespace/1.0/">
	<!ENTITY ns_adobe_xpath "http://ns.adobe.com/XPath/1.0/">
]>
<svg version="1.1" id="OBJECTS" xmlns:x="&ns_extend;" xmlns:i="&ns_ai;" xmlns:graph="&ns_graphs;"
	 xmlns="http://www.w3.org/2000/svg" xmlns:xlink="http://www.w3.org/1999/xlink" x="0px" y="0px" viewBox="0 0 500 424"
	 style="enable-background:new 0 0 500 424;" xml:space="preserve">
<style type="text/css">
	.st0{display:none;fill:#F6FCFF;}
	.st1{fill:#DDE8FA;}
	.st2{fill:url(#SVGID_1_);}
	.st3{fill:#724F2B;}
	.st4{fill:url(#SVGID_2_);}
	.st5{fill:url(#SVGID_3_);}
	.st6{fill:url(#SVGID_4_);}
	.st7{fill:#6DBCD1;}
	.st8{fill:url(#SVGID_5_);}
	.st9{fill:#6CD396;}
	.st10{fill:url(#SVGID_6_);}
	.st11{fill:url(#SVGID_7_);}
	.st12{fill:#DD8682;}
	.st13{fill:#FFEEC7;}
	.st14{fill:#343A3E;}
	.st15{fill:#FFD085;}
	.st16{fill:#C2D4DC;}
	.st17{opacity:0.1;fill:#343A3E;}
	.st18{fill:#1A1D1F;}
	.st19{fill:#645950;}
	.st20{fill:#F6FCFF;}
	.st21{fill:#EBEEF0;}
	.st22{fill:#BCC3C8;}
	.st23{fill:#E8B882;}
	.st24{fill:url(#SVGID_8_);}
	.st25{fill:url(#SVGID_9_);}
	.st26{fill:url(#SVGID_10_);}
	.st27{fill:#FFE1BD;}
	.st28{fill:#EDCAA4;}
	.st29{fill:url(#SVGID_11_);}
	.st30{opacity:0.1;}
	.st31{fill:#363271;}
	.st32{fill:url(#SVGID_12_);}
	.st33{fill:url(#SVGID_13_);}
	.st34{fill:url(#SVGID_14_);}
	.st35{opacity:0.2;fill:#C2D4DC;}
	.st36{opacity:0.4;fill:#F6FCFF;}
	.st37{fill:url(#SVGID_15_);}
	.st38{fill:url(#SVGID_16_);}
	.st39{fill:url(#SVGID_17_);}
	.st40{fill:url(#SVGID_18_);}
	.st41{fill:url(#SVGID_19_);}
</style>
<metadata>
	<sfw  xmlns="&ns_sfw;">
		<slices></slices>
		<sliceSourceBounds  bottomLeftOrigin="true" height="500" width="500" x="0" y="-500"></sliceSourceBounds>
	</sfw>
</metadata>
<g id="BACKGROUND">
	<rect y="-38" class="st0" width="500" height="500"/>
	<g>
		<path class="st1" d="M259.1,277.2c-142,0-166.9,0-198.3,0c-31.4,0-81.1-61.3-3.3-103.9c14.8-8.1-14.1-95.8,45.3-125
			C186,7.5,223.4,89.1,241.4,89.1c18,0,72.1-43,128.6-11.8c56.6,31.3,35.5,93.4,42.9,114.8c7.7,22.2,71.1,8.7,71,55.5
			c0,17.9-21.7,28-21.7,28L259.1,277.2z"/>
		<path class="st1" d="M465.9,177c-25.7,12.8-44.9-38.9-22.2-41.7C466.4,132.5,486.6,166.7,465.9,177z"/>
		<path class="st1" d="M270.2,52.3c-8.2-19.8-35.9-4.6-33.2,8.6C239.7,74.1,277.8,70.5,270.2,52.3z"/>
		<path class="st1" d="M30.3,133.8c-16.2,14,6.9,35.6,18.6,28.9C60.5,156,45.2,120.9,30.3,133.8z"/>
		<path class="st1" d="M221.7,26.8c13-0.4,12.8,25.2,4.3,26.1C217.4,53.7,204.5,27.4,221.7,26.8z"/>
	</g>
</g>
<g>
	<g>
		<g>
			<linearGradient id="SVGID_1_" gradientUnits="userSpaceOnUse" x1="311.8265" y1="271.4559" x2="468.262" y2="271.4559">
				<stop  offset="0" style="stop-color:#5CA2CB"/>
				<stop  offset="0.2213" style="stop-color:#61A7C6"/>
				<stop  offset="0.4818" style="stop-color:#6FB4B8"/>
				<stop  offset="0.7609" style="stop-color:#86CAA0"/>
				<stop  offset="1" style="stop-color:#A0E386"/>
			</linearGradient>
			<path class="st2" d="M311.8,318.3c0,0,31.8-48.2,68.8-71.5c37.1-23.3,73.5-29.6,85.3-12.2c11.8,17.5-24.2,37-60.1,43.9
				C373.5,284.6,323.6,306.2,311.8,318.3z"/>
			<path class="st3" d="M311.8,318.3c8.6-8.9,18-17,27.6-24.8c9.7-7.8,19.8-15,30.2-21.6c5.3-3.3,10.6-6.4,16.1-9.3
				c5.5-2.9,11.1-5.6,16.8-8.1c5.7-2.4,11.5-4.6,17.5-6.4c6-1.7,12-3.2,18.1-4.2c-6.1,1.2-12,2.8-17.9,4.7c-5.9,2-11.6,4.2-17.3,6.7
				c-5.6,2.6-11.2,5.3-16.6,8.2c-5.4,3-10.7,6.1-16,9.4c-10.5,6.6-20.6,13.7-30.3,21.3c-4.9,3.8-9.7,7.7-14.4,11.7
				C320.9,309.9,316.3,314,311.8,318.3z"/>
		</g>
		<g>
			<linearGradient id="SVGID_2_" gradientUnits="userSpaceOnUse" x1="307.6078" y1="302.7956" x2="465.2362" y2="302.7956">
				<stop  offset="0" style="stop-color:#5CA2CB"/>
				<stop  offset="0.2628" style="stop-color:#5FA5C8"/>
				<stop  offset="0.4928" style="stop-color:#6AAFBD"/>
				<stop  offset="0.7106" style="stop-color:#7CC0AB"/>
				<stop  offset="0.9196" style="stop-color:#94D892"/>
				<stop  offset="1" style="stop-color:#A0E386"/>
			</linearGradient>
			<path class="st4" d="M307.6,321.6c0,0,42.9-29.6,81.8-36.5c38.9-6.9,71.6,0.1,75.5,18.7c4,18.6-32.8,22.8-65.2,16.3
				C370.6,314.4,321.6,315.6,307.6,321.6z"/>
			<path class="st3" d="M307.6,321.6c10.2-4.5,20.8-8.2,31.5-11.4c10.7-3.2,21.6-5.8,32.6-7.9c5.5-0.9,11.1-1.7,16.6-2.3
				c5.6-0.6,11.2-1,16.8-1.1c5.6-0.1,11.2,0.1,16.8,0.6c5.6,0.6,11.1,1.4,16.6,2.6c-5.5-1-11-1.7-16.6-2.1
				c-5.6-0.3-11.1-0.4-16.7-0.2c-5.6,0.2-11.1,0.6-16.7,1.2c-5.5,0.6-11.1,1.5-16.5,2.4c-11,1.9-21.9,4.5-32.6,7.6
				c-5.4,1.5-10.7,3.2-16,4.9C318.1,317.7,312.8,319.6,307.6,321.6z"/>
		</g>
		<g>
			<linearGradient id="SVGID_3_" gradientUnits="userSpaceOnUse" x1="312.4806" y1="249.2418" x2="430.3074" y2="249.2418">
				<stop  offset="0" style="stop-color:#5CA2CB"/>
				<stop  offset="0.2277" style="stop-color:#60A6C7"/>
				<stop  offset="0.4698" style="stop-color:#6DB2BA"/>
				<stop  offset="0.7186" style="stop-color:#82C6A5"/>
				<stop  offset="0.9705" style="stop-color:#9FE287"/>
				<stop  offset="0.9792" style="stop-color:#A0E386"/>
			</linearGradient>
			<path class="st5" d="M312.5,317.2c0,0,12.1-55.8,38-90.6c25.9-34.7,57.3-53.6,74.4-41.7s-9.1,42.8-39.8,62
				C357.4,264.1,319.1,301.8,312.5,317.2z"/>
			<path class="st3" d="M312.5,317.2c4.8-11.3,10.5-22.2,16.6-32.8c6.1-10.6,12.9-20.9,20.2-30.8c3.7-4.9,7.5-9.7,11.5-14.4
				c4-4.6,8.2-9.1,12.6-13.4c4.4-4.3,9-8.3,13.8-12.1c4.9-3.7,9.9-7.2,15.2-10.3c-5.1,3.3-10.1,6.9-14.8,10.8
				c-4.7,3.9-9.2,8-13.5,12.4c-4.3,4.4-8.4,8.8-12.4,13.5c-3.9,4.7-7.7,9.5-11.4,14.4c-7.3,9.8-14.1,20-20.4,30.5
				c-3.2,5.2-6.2,10.6-9.1,15.9C317.9,306.2,315.1,311.6,312.5,317.2z"/>
		</g>
	</g>
	<g>
		<g>
			<linearGradient id="SVGID_4_" gradientUnits="userSpaceOnUse" x1="178.2588" y1="263.6513" x2="0.766" y2="267.1197">
				<stop  offset="0" style="stop-color:#5CA2CB"/>
				<stop  offset="0.2124" style="stop-color:#62A8C5"/>
				<stop  offset="0.5085" style="stop-color:#74B9B2"/>
				<stop  offset="0.8523" style="stop-color:#91D595"/>
				<stop  offset="1" style="stop-color:#A0E386"/>
			</linearGradient>
			<path class="st6" d="M209.3,317.6c0,0-36-54.7-78.1-81.1c-42.1-26.4-83.4-33.6-96.8-13.8c-13.4,19.8,27.4,42,68.2,49.8
				C139.3,279.4,195.9,304,209.3,317.6z"/>
			<path class="st7" d="M209.3,317.6c-9.8-10.1-20.4-19.3-31.4-28.2c-11-8.8-22.4-17-34.3-24.5c-6-3.7-12.1-7.2-18.3-10.6
				c-6.2-3.3-12.5-6.4-19-9.2c-6.5-2.7-13.1-5.2-19.8-7.3c-6.8-2-13.6-3.6-20.5-4.8c6.9,1.4,13.7,3.2,20.3,5.4
				c6.7,2.2,13.2,4.8,19.6,7.6c6.4,2.9,12.7,6,18.9,9.3c6.2,3.4,12.2,6.9,18.1,10.6c11.9,7.4,23.3,15.6,34.4,24.2
				c5.5,4.3,11,8.7,16.3,13.3C198.9,308.1,204.2,312.8,209.3,317.6z"/>
		</g>
		<g>
			<linearGradient id="SVGID_5_" gradientUnits="userSpaceOnUse" x1="-0.8282" y1="300.0645" x2="178.0521" y2="300.0645">
				<stop  offset="0" style="stop-color:#A0E386"/>
				<stop  offset="0.3644" style="stop-color:#86CAA0"/>
				<stop  offset="1" style="stop-color:#5CA2CB"/>
			</linearGradient>
			<path class="st8" d="M214.1,321.4c0,0-48.7-33.5-92.8-41.4s-81.2,0.1-85.7,21.3c-4.5,21.1,37.2,25.9,73.9,18.5
				C142.6,313.2,198.2,314.6,214.1,321.4z"/>
			<path class="st9" d="M214.1,321.4c-11.6-5.1-23.6-9.3-35.8-13c-12.2-3.7-24.5-6.6-37-8.9c-6.3-1.1-12.6-2-18.9-2.7
				c-6.3-0.6-12.7-1.1-19-1.2c-6.4-0.1-12.7,0.1-19,0.6c-6.3,0.6-12.6,1.6-18.8,3c6.2-1.1,12.5-1.9,18.8-2.4
				c6.3-0.4,12.6-0.5,19-0.3c6.3,0.3,12.6,0.7,18.9,1.4c6.3,0.7,12.5,1.7,18.8,2.8c12.5,2.2,24.8,5.1,37,8.6
				c6.1,1.7,12.2,3.6,18.2,5.6C202.2,317,208.1,319.1,214.1,321.4z"/>
		</g>
		<g>
			<linearGradient id="SVGID_6_" gradientUnits="userSpaceOnUse" x1="74.8098" y1="239.2906" x2="208.5223" y2="239.2906">
				<stop  offset="0" style="stop-color:#A0E386"/>
				<stop  offset="9.120923e-02" style="stop-color:#92D694"/>
				<stop  offset="0.2909" style="stop-color:#7BBFAC"/>
				<stop  offset="0.5016" style="stop-color:#69AFBD"/>
				<stop  offset="0.7284" style="stop-color:#5FA5C8"/>
				<stop  offset="1" style="stop-color:#5CA2CB"/>
			</linearGradient>
			<path class="st10" d="M208.5,316.4c0,0-13.7-63.4-43.1-102.8c-29.4-39.4-65-60.8-84.4-47.3c-19.4,13.5,10.3,48.6,45.2,70.3
				C157.6,256.1,201,299,208.5,316.4z"/>
			<path class="st9" d="M208.5,316.4c-5.4-12.8-11.9-25.2-18.8-37.2c-7-12.1-14.6-23.7-22.9-34.9c-4.2-5.6-8.6-11-13.1-16.3
				c-4.6-5.3-9.3-10.4-14.3-15.3c-5-4.8-10.2-9.4-15.7-13.8c-5.5-4.2-11.3-8.2-17.3-11.7c5.8,3.8,11.5,7.9,16.8,12.3
				c5.3,4.4,10.5,9.1,15.4,14c4.8,5,9.6,10,14.1,15.3c4.5,5.3,8.8,10.7,12.9,16.3c8.3,11.1,16,22.7,23.1,34.6
				c3.6,5.9,7,12,10.3,18.1C202.4,303.9,205.5,310.1,208.5,316.4z"/>
		</g>
	</g>
	<g>
		<g>
			<g>
				<path class="st3" d="M231.2,124.2c-1,0.7-7.6-0.5-9.4,9.8c-0.8,4.6,1.6,10.4,1.7,12.4s-5.3,8.8-2.6,16.2
					c2.8,7.4,11.7,8.4,19.8,7.3c8.1-1.1,14-8.7,13-15c-0.9-6.3-3.9-7.5-4.5-10.2c-0.5-2.7,3.4-9.8-0.5-16.7
					C245,121.2,236.9,120.7,231.2,124.2z"/>
				<linearGradient id="SVGID_7_" gradientUnits="userSpaceOnUse" x1="224.5978" y1="167.3269" x2="248.0825" y2="167.3269">
					<stop  offset="0" style="stop-color:#DE696C"/>
					<stop  offset="1" style="stop-color:#E697CB"/>
				</linearGradient>
				<path class="st11" d="M248.1,177.8c0,0-5.6,6.3-11.8,6.3c-6.1,0-11.7-6.3-11.7-6.3c0.5-13.3,5.4-27.2,11.7-27.2v0
					C242.7,150.6,247.6,164.5,248.1,177.8z"/>
			</g>
			<g>
				<path class="st12" d="M212.6,144.5l-2,3.1c0,0,0,0,0,0l-47.1-30.1c0,0,0,0,0,0l2.5-4c8.4-13.1,26-16.9,39-8.3
					C217.8,113.7,220.9,131.4,212.6,144.5z"/>
				<path class="st13" d="M210.6,147.6L104.2,314.4c0,0,0,0,0,0l-31,7.7l-6.1,1.5c-1.2,0.3-2.4-0.5-2.7-1.7l-1.2-6.2l-6.1-31.4
					c0,0,0-0.1,0-0.1l106.4-166.8c0,0,0,0,0,0L210.6,147.6C210.5,147.6,210.5,147.6,210.6,147.6z"/>
				<path class="st14" d="M73.1,322.1l-6.1,1.5c-1.2,0.3-2.4-0.5-2.7-1.7l-1.2-6.2c2.1-0.4,4.4-0.1,6.3,1.2
					C71.3,318.1,72.6,320,73.1,322.1z"/>
				<path class="st15" d="M200.5,163.5l-96.3,150.9l-0.5-6.5c-0.1-1-1-1.7-2-1.4l-5.3,1.4c-0.9,0.2-1.9-0.4-2-1.3l-0.7-5.1
					c-0.1-1-1.1-1.6-2-1.3l-4.7,1.5c-1,0.3-2-0.3-2.1-1.3l-0.5-4.7c-0.1-1-1.1-1.7-2.1-1.3l-4.5,1.5c-0.9,0.3-2-0.3-2.1-1.3
					l-0.6-4.9c-0.1-1-1.1-1.6-2-1.3l-4.9,1.5c-0.9,0.3-1.9-0.3-2-1.2l-1-5.4c-0.2-1-1.2-1.6-2.1-1.2l-6.2,2.3l96.3-150.9
					c0.5-0.7,1.5-1,2.2-0.5l44.5,28.4C200.7,161.7,200.9,162.7,200.5,163.5z"/>
				<path class="st16" d="M197.9,168.5l-48.2-30.8c-1.4-0.9-1.8-2.8-0.9-4.2l3.3-5.2c0.9-1.4,2.8-1.8,4.2-0.9l48.2,30.8
					c1.4,0.9,1.8,2.8,0.9,4.2l-3.3,5.2C201.2,169,199.3,169.4,197.9,168.5z"/>
				<path class="st16" d="M211.6,152.7l-2.6,4.1c-1.1,1.7-3.3,2.2-5,1.2c0,0,0,0,0,0l-47.1-30.1c0,0,0,0,0,0
					c-1.7-1.1-2.2-3.4-1.1-5.1l2.6-4.1c1.1-1.7,3.3-2.2,5-1.1c0,0,0,0,0,0l47.1,30.1c0,0,0,0,0,0C212.2,148.7,212.7,151,211.6,152.7
					z"/>
				<polygon class="st17" points="68.2,289.8 79.5,271.5 91,253.3 114,217 137.2,180.8 148.9,162.8 160.7,144.8 149.4,163.1 
					138,181.3 114.9,217.6 91.7,253.8 80,271.8 				"/>
				<polygon class="st17" points="95.8,307.4 107.2,289.2 118.6,271 141.6,234.6 164.9,198.5 176.6,180.4 188.4,162.4 177,180.7 
					165.6,198.9 142.6,235.2 119.3,271.4 107.6,289.5 				"/>
				<polygon class="st17" points="83.3,294.9 94.4,277.1 105.6,259.3 128.1,223.8 150.8,188.4 162.3,170.7 173.8,153.2 162.7,171 
					151.6,188.8 129,224.4 106.3,259.7 94.9,277.4 				"/>
				
					<rect x="124.8" y="187.8" transform="matrix(0.843 0.5379 -0.5379 0.843 138.8084 -36.166)" class="st13" width="13.2" height="63.7"/>
			</g>
			<g>
				<g>
					<g>
						<path class="st18" d="M442.3,183.9l-40.4-1.2l-5-0.2l-88.1-2.6L219,99.3l132,0.4l21.1,19.5l24.5,22.6c0,0,0,0,0,0l0,0l5.5,5.1
							L442.3,183.9z"/>
						<path class="st15" d="M402.3,164.6c-0.1,6.1-0.2,12.1-0.4,18.1c-0.2,6.9-0.5,13.9-0.8,20.8c0,0.2,0,0.4-0.1,0.6
							c-0.7,2.4-4.5,2.4-4.9-0.1c0-0.2,0-0.3,0-0.5c0.2-4.9,0.4-9.8,0.5-14.7c0.1-2.1,0.2-4.2,0.3-6.3c0.6-13,1.4-26.4-0.1-39.3
							c0-0.2-0.1-0.6-0.2-1c0-0.2-0.1-0.4-0.1-0.5c0,0,0,0,0,0l-24.5-22.6c0.9-0.5,2-0.5,3,0.2c6.3,4.9,12.7,9.8,19,14.6
							c3.9,2.9,7.2,4.2,7.8,9.3c0.1,1.2,0.2,2.4,0.3,3.7C402.6,152.8,402.4,158.7,402.3,164.6z"/>
						<path class="st15" d="M405.8,207.2c-3.5-4.7-11.2-4.5-14.9-0.3c-2.1,2.4,1.4,6,3.5,3.5c1-1.1,1.8-1.5,3.3-1.7
							c0.9-0.1,1.7-0.2,2.5,0.2c0.3,0.1,1.8,1.4,1.2,0.7C403.4,212.3,407.8,209.8,405.8,207.2z"/>
						<path class="st15" d="M410.6,235.9c-0.2-7.7-3.5-22.4-8.1-28.5c-1.4-1.8-3.7-0.7-4.2,1.1c-0.1,0.1-0.3,0.2-0.4,0.4
							c-0.1,0-0.1,0-0.2,0c-0.8-1.9-3.9-2.5-4.6,0c-1.2,4.1-2.9,8-3.7,12.1c-0.9,4.7-0.1,9.3-0.5,14c-0.2,3.2,4.8,3.6,5,0.4
							c0.3-4.8-0.6-9.6,0.6-14.3c0.3-1.1,0.6-2.2,1-3.3c-0.4,2.3-0.9,4.6-1.1,6.9c-0.4,4.4,0.7,8.7,0.6,13.2c-0.1,3.2,4.9,3.6,5,0.4
							c0.1-4.4-0.9-8.8-0.6-13.2c0.1-0.8,0.2-1.6,0.3-2.3c0,0.6,0,1.2,0,1.7c0,3.7,0.9,9.4,0.8,13.2c-0.1,3.2,4.9,3.6,5,0.4
							c0.1-3.2-0.9-14.5-1.2-17.8c0.3,1.2,1.4,14.4,1.4,15.5C405.7,238.7,410.7,239.1,410.6,235.9z"/>
					</g>
					<path class="st14" d="M242.3,171l23.6-52.2c0,0,71.3,2.8,117.9,55.6l-24.4,52.2C359.4,226.6,307.4,181,242.3,171z"/>
				</g>
				<g>
					<path class="st19" d="M360.6,322.8H256c-0.7,0-1.2,0.5-1.2,1.2l0,0c0,0.7-0.5,1.2-1.2,1.2h-25.5c-0.7,0-1.2-0.5-1.2-1.2l0,0
						c0-0.7-0.5-1.2-1.2-1.2H121.2c-0.7,0-1.2-0.6-1.2-1.2l2.8-138.8c0-0.7,0.5-1.2,1.2-1.2h233.7c0.7,0,1.2,0.5,1.2,1.2l2.8,138.8
						C361.8,322.2,361.2,322.8,360.6,322.8z"/>
					<path class="st20" d="M241.3,168.7v139.4l0,0c-1.2-0.5-30.8-12.7-79.8,0c-15.5,4-33.2,4-33.2,4V172.8c0,0,17.7,0,33.2-4
						C211.5,155.7,241.3,168.7,241.3,168.7z"/>
					<path class="st20" d="M241.3,168.7v139.4c0,0,29.8-13,79.9,0c15.5,4,33.2,4,33.2,4V172.8c0,0-17.7,0-33.2-4
						C271.2,155.7,241.3,168.7,241.3,168.7z"/>
					<path class="st21" d="M241.3,308.1v9.8H128.2v-5.8c0,0,17.7,0,33.2-4C210.5,295.4,240.1,307.6,241.3,308.1L241.3,308.1z"/>
					<path class="st21" d="M241.3,308.1v9.8h113.1v-5.8c0,0-17.7,0-33.2-4C272.2,295.4,242.6,307.6,241.3,308.1L241.3,308.1z"/>
					<path class="st22" d="M241.3,168.7c0.3,12.4,0.4,24.9,0.6,37.3l0.2,37.3l-0.2,37.3l-0.2,18.7l-0.4,18.7l-0.4-18.7l-0.2-18.7
						l-0.2-37.3l0.2-37.3C240.9,193.6,241,181.2,241.3,168.7z"/>
					<path class="st22" d="M182.4,308.1c4.8-1,9.7-1.8,14.6-2.1c4.9-0.3,9.9-0.3,14.8,0c4.9,0.3,9.8,0.9,14.7,1.8
						c4.8,0.9,9.7,2,14.3,3.6c-2.4-0.7-4.8-1.2-7.2-1.7c-2.4-0.5-4.8-0.9-7.2-1.3c-4.8-0.8-9.7-1.3-14.6-1.6
						c-2.4-0.2-4.9-0.2-7.4-0.3c-2.5,0-4.9,0-7.4,0.1l-3.7,0.2l-3.7,0.4l-1.8,0.2l-1.8,0.3L182.4,308.1z"/>
					<path class="st22" d="M241.3,314.5c-3.9-0.8-7.9-1.1-11.9-1.3c-4-0.3-8-0.4-12-0.5c-8-0.2-16-0.2-24,0l-12,0.3l-12,0.4l-24,1.1
						l12-0.9l12-0.7c8-0.4,16-0.7,24-0.9c8-0.1,16-0.1,24,0.2C225.5,312.4,233.5,312.8,241.3,314.5z"/>
					<path class="st22" d="M241.3,309.4c4.1-1,8.3-1.9,12.5-2.6c4.2-0.7,8.4-1.3,12.6-1.7c4.2-0.4,8.5-0.7,12.7-0.7
						c4.3,0,8.5,0.2,12.7,0.7c-4.2-0.3-8.5-0.3-12.7-0.2c-4.2,0.2-8.5,0.5-12.7,0.9c-4.2,0.4-8.4,1-12.6,1.6
						C249.7,308,245.5,308.6,241.3,309.4z"/>
					<path class="st22" d="M241.3,313.3c6.7-2,13.8-3,20.7-3.7c7-0.7,14-0.9,21.1-0.9l5.3,0.1l5.3,0.2c3.5,0.1,7,0.4,10.5,0.7
						c3.5,0.3,7,0.7,10.5,1.1l10.4,1.4l-10.5-1.1c-3.5-0.3-7-0.6-10.5-0.8c-7-0.4-14-0.8-21-0.8c-7-0.1-14,0.1-21,0.7
						c-3.5,0.3-7,0.6-10.5,1.2C248.2,311.8,244.7,312.4,241.3,313.3z"/>
					<path class="st22" d="M241.3,316.5c8.9-0.1,17.9-0.2,26.8-0.3l26.8-0.1l26.8,0.1c8.9,0,17.9,0.1,26.8,0.3
						c-8.9,0.1-17.9,0.2-26.8,0.3l-26.8,0.1l-26.8-0.1C259.2,316.7,250.3,316.6,241.3,316.5z"/>
					<path class="st7" d="M136.5,180.1v37.1c0,0,30.1-5.3,37.3-4.1v-38.5c0,0-4.8-0.7-24.3,3.8C145.4,179.4,136.8,180.1,136.5,180.1
						z"/>
					<path class="st22" d="M232.1,175.3c-31.3-4.5-50.4-0.1-50.6,0l-0.3-1.4c0.2,0,19.5-4.6,51.1,0L232.1,175.3z"/>
					<path class="st22" d="M181.5,181.1l-0.2-1.4c0.3,0,27.6-3.6,51,0l-0.2,1.4C208.8,177.6,181.7,181.1,181.5,181.1z"/>
					<path class="st22" d="M181.4,187.6l-0.2-1.4c0.2,0,17-1.9,26.9-1.2l-0.1,1.4C198.3,185.7,181.6,187.6,181.4,187.6z"/>
					<path class="st22" d="M181.4,198.7l-0.1-1.4c0.3,0,28-2.4,51,0l-0.1,1.4C209.3,196.3,181.7,198.7,181.4,198.7z"/>
					<path class="st22" d="M232.1,206.1c-21.3-2.4-50.4-0.6-50.7-0.6l-0.1-1.4c0.3,0,29.6-1.8,51,0.6L232.1,206.1z"/>
					<path class="st22" d="M219,212.7c-18.5-1.8-37.3,0-37.5,0l-0.1-1.4c0.2,0,19.1-1.8,37.8,0L219,212.7z"/>
					<path class="st22" d="M136.6,227.3l-0.2-1.4c0.6-0.1,58.1-7.4,95.9,0l-0.3,1.4C194.5,219.9,137.2,227.2,136.6,227.3z"/>
					<path class="st22" d="M136.6,261.3l-0.2-1.4c0.6-0.1,58.1-8.1,95.9-0.7l-0.3,1.4C194.5,253.2,137.2,261.2,136.6,261.3z"/>
					<path class="st22" d="M136.6,266.6l-0.2-1.4c0.6-0.1,58.1-8.1,95.9-0.7l-0.3,1.4C194.5,258.5,137.2,266.5,136.6,266.6z"/>
					<path class="st22" d="M136.6,233.5l-0.2-1.4c0.6-0.1,58.1-7.4,95.9,0l-0.3,1.4C194.5,226.1,137.2,233.5,136.6,233.5z"/>
					<path class="st22" d="M136.6,239.7l-0.2-1.4c0.6-0.1,58.1-7.4,95.9,0l-0.3,1.4C194.5,232.3,137.2,239.7,136.6,239.7z"/>
					<path class="st22" d="M136.6,246l-0.2-1.4c0.6-0.1,58.1-7.4,95.9,0l-0.3,1.4C194.5,238.5,137.2,245.9,136.6,246z"/>
					<path class="st22" d="M136.6,252.2l-0.2-1.4c0.3,0,29.2-3.8,47.9-3.1l-0.1,1.4C165.7,248.3,136.9,252.1,136.6,252.2z"/>
					<path class="st22" d="M136.7,273.6l-0.3-1.4c0.3-0.1,29.2-5.3,48-4.6l-0.1,1.4C165.7,268.3,137,273.6,136.7,273.6z"/>
					<path class="st22" d="M347,260.6c-47.2-8.3-94.9-2.1-95.4-2.1l-0.2-1.4c0.5-0.1,48.5-6.3,95.9,2.1L347,260.6z"/>
					<path class="st22" d="M347,282.3c-47.2-8.3-94.9-2.1-95.4-2.1l-0.2-1.4c0.5-0.1,48.5-6.3,95.9,2.1L347,282.3z"/>
					<path class="st22" d="M347,289.1c-47.2-8.3-94.9-2.1-95.4-2.1l-0.2-1.4c0.5-0.1,48.5-6.3,95.9,2.1L347,289.1z"/>
					<path class="st22" d="M347,265.9c-37.5-7.4-94.9-2.1-95.4-2.1l-0.1-1.4c0.6-0.1,58.1-5.4,95.8,2.1L347,265.9z"/>
					<path class="st22" d="M251.5,270.9l-0.1-1.4c0.3,0,29.2-2.5,47.9-1.8l-0.1,1.4C280.6,268.3,251.8,270.8,251.5,270.9z"/>
					<path class="st22" d="M251.6,294.4l-0.2-1.4c0.4-0.1,39.6-5.2,66.9-1.1l-0.2,1.4C291,289.2,251.9,294.3,251.6,294.4z"/>
					<path class="st16" d="M136.5,302.4v-21c0,0,59.7-11.7,95.6-4.6v21c0,0-20.2-3.4-33-3.4C186.4,294.4,154.6,302.4,136.5,302.4z"
						/>
					<path class="st23" d="M346.9,180.8v67.5c0,0-18.5-3.2-37.1-3.5v-68.3c0,0,9.5,0.9,23.8,3.5C338.1,180.7,343.7,181,346.9,180.8z
						"/>
					<path class="st22" d="M251.6,175.3l-0.3-1.4c0.3-0.1,28.4-5.6,49.7,0l-0.4,1.4C279.6,169.8,251.9,175.2,251.6,175.3z"/>
					<path class="st22" d="M251.6,181.5l-0.3-1.4c0.3-0.1,28.4-5.6,49.7,0l-0.4,1.4C279.6,176.1,251.9,181.5,251.6,181.5z"/>
					<path class="st22" d="M251.6,187.8l-0.3-1.4c0.3-0.1,28.4-5.6,49.7,0l-0.4,1.4C279.6,182.3,251.9,187.8,251.6,187.8z"/>
					<path class="st22" d="M251.6,206.7l-0.3-1.4c0.3-0.1,28.4-5.6,49.7,0l-0.4,1.4C279.6,201.2,251.9,206.6,251.6,206.7z"/>
					<path class="st22" d="M251.6,213.1l-0.3-1.4c0.3-0.1,28.4-5.6,49.7,0l-0.4,1.4C279.6,207.6,251.9,213,251.6,213.1z"/>
					<path class="st22" d="M251.6,219.6l-0.3-1.4c0.3-0.1,28.4-5.6,49.7,0l-0.4,1.4C279.6,214.1,251.9,219.5,251.6,219.6z"/>
					<path class="st22" d="M251.6,226l-0.3-1.4c0.3-0.1,28.4-5.6,49.7,0l-0.4,1.4C279.6,220.5,251.9,225.9,251.6,226z"/>
					<path class="st22" d="M251.6,243.8l-0.3-1.4c0.3-0.1,28.4-5.6,49.7,0l-0.4,1.4C279.6,238.4,251.9,243.8,251.6,243.8z"/>
					<path class="st22" d="M251.6,193.8l-0.2-1.4c0.2,0,15.6-2.2,24.8-1.7l-0.1,1.4C267,191.7,251.7,193.8,251.6,193.8z"/>
					<path class="st22" d="M251.6,232.7l-0.4-1.4c0.2,0,17.5-4.4,36.4-1.8l-0.2,1.4C268.8,228.4,251.8,232.7,251.6,232.7z"/>
				</g>
				<linearGradient id="SVGID_8_" gradientUnits="userSpaceOnUse" x1="224.3155" y1="195.0252" x2="236.5655" y2="195.0252">
					<stop  offset="0" style="stop-color:#514CC8"/>
					<stop  offset="1" style="stop-color:#739EED"/>
				</linearGradient>
				<path class="st24" d="M235.5,165.3l-9.7-1.7c-0.8-0.1-1.5,0.5-1.5,1.2v61.6l6.1-5l6.1,5v-59.9
					C236.6,165.9,236.1,165.4,235.5,165.3z"/>
			</g>
			<g>
				<linearGradient id="SVGID_9_" gradientUnits="userSpaceOnUse" x1="216.4458" y1="163.0214" x2="234.0237" y2="163.0214">
					<stop  offset="0" style="stop-color:#DE696C"/>
					<stop  offset="1" style="stop-color:#E697CB"/>
				</linearGradient>
				<path class="st25" d="M234,152.5c-0.4-4.3-15.4,7.7-17.4,11.3c-1.5,2.7,6.4,10.4,8.3,10.7s6.2-3.3,5.5-4.5
					c-0.8-1.3-5.5-5.3-5.7-5.7C224.5,163.8,234.3,155.2,234,152.5z"/>
				<linearGradient id="SVGID_10_" gradientUnits="userSpaceOnUse" x1="238.0576" y1="162.5276" x2="256.6852" y2="162.5276">
					<stop  offset="0" style="stop-color:#DE696C"/>
					<stop  offset="1" style="stop-color:#E697CB"/>
				</linearGradient>
				<path class="st26" d="M238.1,152.5c0.4-4.3,16.5,5.2,18.4,8.8c1.5,2.7-6.1,12.1-8,12.4c-1.9,0.3-6.4-3.7-5.7-5
					c0.8-1.3,6.4-6,6.6-6.4C249.6,161.8,237.8,155.2,238.1,152.5z"/>
				<path class="st27" d="M239.5,153c0,0-1.6,1.5-3.1,1.5c-1.6,0-3.1-1.5-3.1-1.5s0.7-1,1.2-1.5c0,0,0.1-0.1,0.1-0.2
					c0.3-1.2-0.1-7-0.1-7h3.9c0,0-0.4,6.1-0.1,7.1c0,0,0,0.1,0.1,0.1C238.7,152.1,239.5,153,239.5,153z"/>
				<path class="st27" d="M244.5,169.6c0,0,1.9,0,3.2,2.5c0,0-6.1,1.3-6.8,0.5C240.3,171.8,244.5,169.6,244.5,169.6z"/>
				<path class="st27" d="M225,172.4c0,0,1.3-2.7,3.4-2.6c0,0,3.5,1.3,3.6,2.6C232.1,173.6,225,172.4,225,172.4z"/>
				<path class="st28" d="M238.2,151.5c-1.6,0.8-2.9,0.4-3.8-0.1c0.3-1.2-0.1-7-0.1-7h3.9C238.3,144.4,237.9,150.5,238.2,151.5z"/>
				<path class="st27" d="M247.1,137.4c-0.3,7-4.4,12.7-10.7,12.7s-10.5-5.7-10.7-12.7c-0.3-7,3.3-13.2,10.7-13.5
					C243.8,124.2,247.3,130.4,247.1,137.4z"/>
				<g>
					<path class="st27" d="M227,139.4c0,0-1.9-2.3-3.6-1c-1.4,1-0.2,6.2,4.2,5.7L227,139.4z"/>
					<path class="st28" d="M223.5,139.5c0.4-0.1,0.9-0.1,1.3,0c0.4,0.1,0.8,0.4,1.1,0.7c0.3,0.3,0.6,0.7,0.7,1.1
						c0.1,0.2,0.1,0.4,0.2,0.6c0,0.2,0.1,0.4,0.1,0.6c-0.5-0.7-1-1.3-1.5-1.8C224.9,140.2,224.3,139.7,223.5,139.5z"/>
				</g>
				<g>
					<path class="st27" d="M245.6,139.4c0,0,1.9-2.3,3.6-1c1.4,1,0.2,6.2-4.2,5.7L245.6,139.4z"/>
					<path class="st28" d="M249.1,139.5c-0.8,0.3-1.4,0.7-2,1.2c-0.5,0.5-1,1.2-1.5,1.8c0-0.2,0.1-0.4,0.1-0.6
						c0.1-0.2,0.1-0.4,0.2-0.6c0.2-0.4,0.4-0.8,0.7-1.1c0.3-0.3,0.7-0.6,1.1-0.7C248.2,139.4,248.7,139.3,249.1,139.5z"/>
				</g>
				<path class="st3" d="M225.8,139.8c1.2,0.5,2.5-5.8,2.5-5.8s0.1,2.2,0.7,2.3c0.6,0.1,4.4-1.1,9.6-7.3c0,0,1.6,2.7,3.4,3.5
					c0.7,0.3,1.3,0,1.3,0s1.9,7.3,3.1,7.3c1.2,0,1.6-6.6,0-9.8c-1.6-3.2-5.3-6.5-10.2-6.5c-4.9,0-11.1,4.5-11.1,10.1
					S225.1,139.6,225.8,139.8z"/>
			</g>
			<path class="st1" d="M416.7,335c0,4.1-71.6,7.3-159.8,7.3c-52.9,0-99.7-1.2-128.8-3c-8.5,1.8-22.1,3-37.4,3
				c-25.7,0-46.5-3.3-46.5-7.3c0-4.1,20.8-7.3,46.5-7.3c15.4,0,29,1.2,37.4,3c29.1-1.8,76-3,128.8-3
				C345.1,327.6,416.7,330.9,416.7,335z"/>
		</g>
		<g>
			<g>
				<path class="st1" d="M434.1,384.3c0,3.4-16.2,6.3-36.2,6.3c-20,0-36.2-2.8-36.2-6.3c0-3.5,16.2-6.3,36.2-6.3
					C417.9,378,434.1,380.8,434.1,384.3z"/>
				<path class="st1" d="M313,385.5c0,3.5-16.2,6.3-36.2,6.3c-10.8,0-20.5-0.8-27.2-2.1c-6.6,1.3-16.3,2.1-27.2,2.1
					c-20,0-36.2-2.8-36.2-6.3c0-3.4,16.2-6.3,36.2-6.3c10.8,0,20.5,0.8,27.2,2.1c6.6-1.3,16.3-2.1,27.2-2.1
					C296.8,379.2,313,382,313,385.5z"/>
			</g>
			<path class="st18" d="M390.1,335c0,0,10.3,24.9,11.6,26.3c1.3,1.3,16.7,9.7,17.6,10.8c0.8,1-0.1,13.6-2.1,13.6s-4.7,0.4-5,0
				c-0.4-0.4,2.3-2.5,2.6-3.5c0.2-1,0-4.6,0-4.6s-19.2-5.1-22-8.8c-2.7-3.7-10.8-21.2-10.8-21.2s-1.4,0.2-2,1.1
				c-0.7,0.9-5.3,15.9-4.8,18.2c0.4,2.2,7.8,16.8,8,17.8c0.2,1-13.2,1.9-13.7,1.2c-0.4-0.7,4.5-2.1,4.5-2.1s-8.3-12.1-10-17.3
				c-1.7-5.3,8.2-31.3,8.2-31.3H390.1z"/>
			<g>
				<linearGradient id="SVGID_11_" gradientUnits="userSpaceOnUse" x1="352.866" y1="299.1481" x2="371.9777" y2="299.1481">
					<stop  offset="0" style="stop-color:#DE696C"/>
					<stop  offset="0.1" style="stop-color:#DF7366"/>
					<stop  offset="0.49" style="stop-color:#E69953"/>
					<stop  offset="0.81" style="stop-color:#EAAF49"/>
					<stop  offset="1" style="stop-color:#ECB947"/>
				</linearGradient>
				<path class="st29" d="M370.8,315.9c-3.9,3-14.1-7.2-16.5-15.4c-2.4-8.2-1.1-17.5-0.5-18c1.2-1,4.8-1,5.7,0.7
					c0.9,1.7,0,11,1.6,14.7C363.8,304.6,375.8,312,370.8,315.9z"/>
				<path class="st27" d="M354.5,284.2c0,0,1.3-7.5,2.7-7.4c1.4,0.1,1.4,7.9,1.4,7.9S356.6,285.4,354.5,284.2z"/>
			</g>
			<g class="st30">
				<path class="st18" d="M354.5,284.2c0,0,1.3-7.5,2.7-7.4c1.4,0.1,1.4,7.9,1.4,7.9S356.6,285.4,354.5,284.2z"/>
			</g>
			<g>
				<g>
					<path class="st16" d="M237.2,342.1c0,0-3.2,16-5.9,19c-2.7,3-14.5,12.1-15.1,12.8c-0.5,0.7,2.7,10.3,6,11.7
						c0.9,0.4,4.9,0.4,5.1,0s-3.2-2.6-3.6-3.3c-0.4-0.7-0.8-4.4-0.8-4.4s17-9.7,19.7-13.2c2.7-3.5,6.9-20.7,6.9-20.7L237.2,342.1z"
						/>
					<path class="st31" d="M237.2,342.1c0,0-3.2,16-5.9,19c-2.7,3-14.5,12.1-15.1,12.8c-0.5,0.7,2.7,10.3,6,11.7
						c0.9,0.4,4.9,0.4,5.1,0s-3.2-2.6-3.6-3.3c-0.4-0.7-0.8-4.4-0.8-4.4s17-9.7,19.7-13.2c2.7-3.5,6.9-20.7,6.9-20.7L237.2,342.1z"
						/>
				</g>
				<path class="st31" d="M236.9,336.6c0,0-2.2,5.1-0.6,9.1c1.6,4,20.9,16.3,22.8,19.1c1.9,2.9,7.3,20.3,9.4,20.3c2,0,10.8,1,11.3,0
					c0.5-1-5.4-1.8-5.4-1.8s-4.3-19.2-8.3-24.7c-4-5.5-14.4-21.1-14.4-21.1L236.9,336.6z"/>
				<g>
					<linearGradient id="SVGID_12_" gradientUnits="userSpaceOnUse" x1="247.9143" y1="304.311" x2="283.2062" y2="304.311">
						<stop  offset="0.14" style="stop-color:#514CC8"/>
						<stop  offset="0.88" style="stop-color:#739EED"/>
						<stop  offset="0.88" style="stop-color:#739EED"/>
					</linearGradient>
					<path class="st32" d="M247.9,311.5c0.6,4.8,14.8,2.6,22.2-1.5c7.4-4,13.5-12.1,13-12.7c-0.5-0.6-2.8-3.5-4.6-2.9
						c-1.8,0.6-7.7,7.6-11.3,9.1C260.6,306.2,247.2,305.3,247.9,311.5z"/>
					<path class="st27" d="M279,295.1c0,0,4.5-6,5.7-5.3c1.2,0.7-2.6,8.2-2.6,8.2S280.3,297,279,295.1z"/>
				</g>
				<g class="st30">
					<path class="st18" d="M279,295.1c0,0,4.5-6,5.7-5.3c1.2,0.7-2.6,8.2-2.6,8.2S280.3,297,279,295.1z"/>
				</g>
				<g>
					<path class="st27" d="M256.3,302.4c-0.1,0.2-0.1,0.3-0.2,0.5c0,0.1-0.1,0.3-0.1,0.4c-0.3,1-0.9,2.8-1.3,4.1
						c-0.2,0.8-0.3,1.5-0.3,1.7c0,0.1,0,0.1,0,0.1c0.3,0.6,0.8,1.7,0.8,1.7s-1.9,1-3.4,0.6c-1.5-0.4-2.7-2.2-2.7-2.2s1-0.7,1.5-1.1
						c0,0,0.1-0.1,0.1-0.2c0.1-0.3,0.3-0.9,0.6-1.6c0.6-2,1.2-5.1,1.2-5.1L256.3,302.4z"/>
					<path class="st28" d="M256.3,302.4c-0.1,0.2-0.1,0.3-0.2,0.5c0,0.1-0.1,0.3-0.1,0.4c-0.3,1-0.9,2.8-1.3,4.1
						c-1.5,0.2-2.7-0.3-3.4-1c0.6-2,1.2-5.1,1.2-5.1L256.3,302.4z"/>
				</g>
				<path class="st27" d="M265.9,292.3c0.4,7-2.3,12.8-8.7,13.4c-6.4,0.6-11-4.7-11.9-11.6c-0.9-6.9,2-13.4,9.4-14.4
					C262.2,279.2,265.5,285.3,265.9,292.3z"/>
				<linearGradient id="SVGID_13_" gradientUnits="userSpaceOnUse" x1="235.0479" y1="325.4213" x2="257.1037" y2="325.4213">
					<stop  offset="0.14" style="stop-color:#514CC8"/>
					<stop  offset="0.88" style="stop-color:#739EED"/>
					<stop  offset="0.88" style="stop-color:#739EED"/>
				</linearGradient>
				<path class="st33" d="M250.6,308.3c0,0,1.6,2,4.6,2.7c2.9,0.8,1.9,28.6,0.7,30c-2.5,2.8-17,1.9-20.7-3.4
					C233.4,335,244.9,307.1,250.6,308.3z"/>
				<linearGradient id="SVGID_14_" gradientUnits="userSpaceOnUse" x1="249.958" y1="308.3481" x2="285.0272" y2="308.3481">
					<stop  offset="0.14" style="stop-color:#514CC8"/>
					<stop  offset="0.88" style="stop-color:#739EED"/>
					<stop  offset="0.88" style="stop-color:#739EED"/>
				</linearGradient>
				<path class="st34" d="M250,316.6c0.9,4.9,15.2,1.8,22.4-2.7c7.3-4.5,13.1-13,12.5-13.6c-0.6-0.6-3-3.4-4.8-2.7
					c-1.8,0.7-7.4,8.2-11,9.9C262.6,310.6,248.9,310.4,250,316.6z"/>
				<path class="st27" d="M280.6,298.3c0,0,4.2-6.3,5.5-5.6c1.3,0.7-2.2,8.4-2.2,8.4S282,300.2,280.6,298.3z"/>
				<path class="st14" d="M247,298.4c1.7,0.3,1.4-5.1,1.6-7.3c0,0,6.1-0.3,11.2-7.3c0,0-1.6,2.9,0,3.2c1.6,0.3,3.8-3.8,3.8-3.8
					s1.3,2.7,2.5,2.6c1.2,0,0.4-3.4-3.3-5.3c0,0,3.7-0.3,2.6-1.8c-1.1-1.5-12.5-2.7-18,3.5c0,0-1.6-4.6-2.1,2.2c0,0-3,0.2-3.2,2
					c-0.1,1,1.4,1,1.4,1S241.9,297.4,247,298.4z"/>
				<g>
					<path class="st27" d="M246.9,295.9c0,0-2.1-2.1-3.7-0.7c-1.3,1.2,0.4,6.2,4.7,5.3L246.9,295.9z"/>
					<path class="st28" d="M243.4,296.3c0.4-0.2,0.9-0.2,1.3-0.1c0.4,0.1,0.8,0.3,1.2,0.6c0.3,0.3,0.6,0.6,0.8,1
						c0.1,0.2,0.2,0.4,0.3,0.6c0.1,0.2,0.1,0.4,0.1,0.6c-0.6-0.6-1.1-1.2-1.7-1.7C244.9,296.8,244.2,296.5,243.4,296.3z"/>
				</g>
			</g>
			<g>
				<path class="st14" d="M393.9,281.8c-1.2,4.6-5.9,7.4-10.6,6.2l-48-12.3l-10-2.6c1.7-2.5,3.1-5.2,4.1-8.2
					c0.7-2.2,1.2-4.6,1.4-7.1c0-0.4,0.1-0.8,0.1-1.2l9.7,2.5l47,12.1C392.3,272.4,395.1,277.2,393.9,281.8z"/>
				<path class="st14" d="M299,213.2c-23.1,0-41.8,18.7-41.8,41.8c0,23.1,18.7,41.8,41.8,41.8c15.6,0,29.2-8.5,36.4-21.1
					c2.8-5,4.7-10.6,5.3-16.5c0.1-1.4,0.2-2.7,0.2-4.1C340.9,231.9,322.1,213.2,299,213.2z M330.9,257.9c-0.2,2.4-0.7,4.8-1.4,7.1
					c-1,2.9-2.3,5.7-4.1,8.2c-3.9,5.7-9.7,10.1-16.4,12.3c-2.2,0.7-4.6,1.2-7.1,1.4C301,287,300,287,299,287c-2.4,0-4.7-0.3-6.9-0.8
					c-3.7-0.8-7.2-2.3-10.3-4.3c-2.1-1.3-4-2.9-5.7-4.7c-1.9-1.9-3.5-4.1-4.8-6.4c-2.7-4.7-4.2-10.1-4.2-15.9c0-0.3,0-0.5,0-0.8
					c0-2.2,0.3-4.3,0.8-6.4c2.7-11.9,12.1-21.3,24-24c2.1-0.5,4.2-0.8,6.4-0.8c0.3,0,0.5,0,0.8,0c5.8,0,11.2,1.5,15.9,4.2
					c2.3,1.3,4.5,3,6.4,4.8c1.8,1.7,3.4,3.6,4.7,5.7c2,3.1,3.5,6.6,4.3,10.3c0.5,2.2,0.8,4.5,0.8,6.9c0,0.5,0,1.1,0,1.6
					C331,257.1,331,257.5,330.9,257.9z"/>
				<path class="st35" d="M331,255c0,1,0,1.9-0.1,2.9c-0.2,2.4-0.7,4.8-1.4,7.1c-3.2,9.7-10.8,17.3-20.5,20.5
					c-2.2,0.7-4.6,1.2-7.1,1.4C301,287,300,287,299,287c-2.4,0-4.7-0.3-6.9-0.8c-3.7-0.8-7.2-2.3-10.3-4.3c-2.1-1.3-4-2.9-5.7-4.7
					c-1.9-1.9-3.5-4.1-4.8-6.4c-2.7-4.7-4.2-10.1-4.2-15.9c0-0.3,0-0.5,0-0.8c0-2.2,0.3-4.3,0.8-6.4c2.7-11.9,12.1-21.3,24-24
					c2.1-0.5,4.2-0.8,6.4-0.8c0.3,0,0.5,0,0.8,0c5.8,0,11.2,1.5,15.9,4.2c2.3,1.3,4.5,3,6.4,4.8c1.8,1.7,3.4,3.6,4.7,5.7
					c2,3.1,3.5,6.6,4.3,10.3C330.8,250.3,331,252.6,331,255z"/>
				<g>
					<path class="st36" d="M330.3,248.1l-38.2,38.2c-3.7-0.8-7.2-2.3-10.3-4.3l44.2-44.2C328,240.9,329.5,244.4,330.3,248.1z"/>
					<path class="st36" d="M321.3,232l-45.2,45.3c-1.9-1.9-3.5-4.1-4.8-6.4l43.7-43.7C317.3,228.6,319.4,230.2,321.3,232z"/>
					<path class="st36" d="M298.3,223L267,254.2c0-2.2,0.3-4.3,0.8-6.4l24-24C293.9,223.3,296.1,223.1,298.3,223z"/>
				</g>
			</g>
			<g>
				<path class="st27" d="M369.5,302.8c0.1,0.2,0.1,0.3,0.2,0.5c0,0.1,0.1,0.3,0.1,0.4c0.3,1,0.9,2.8,1.3,4.1
					c0.2,0.8,0.3,1.5,0.3,1.7c0,0.1,0,0.1,0,0.1c-0.3,0.6-0.8,1.7-0.8,1.7s1.9,1,3.4,0.6c1.5-0.4,2.7-2.2,2.7-2.2s-1-0.7-1.5-1.1
					c0,0-0.1-0.1-0.1-0.2c-0.1-0.3-0.3-0.9-0.6-1.6c-0.6-2-1.2-5.1-1.2-5.1L369.5,302.8z"/>
				<path class="st28" d="M369.5,302.8c0.1,0.2,0.1,0.3,0.2,0.5c0,0.1,0.1,0.3,0.1,0.4c0.3,1,0.9,2.8,1.3,4.1c1.5,0.2,2.7-0.3,3.4-1
					c-0.6-2-1.2-5.1-1.2-5.1L369.5,302.8z"/>
			</g>
			<path class="st27" d="M360.3,292.7c-0.4,7,2,12.8,8.3,13.4c6.4,0.6,11-4.7,11.9-11.6c0.9-6.9-2-13.4-9.4-14.4
				C363.6,279.6,360.7,285.7,360.3,292.7z"/>
			<linearGradient id="SVGID_15_" gradientUnits="userSpaceOnUse" x1="368.9342" y1="325.4213" x2="390.99" y2="325.4213">
				<stop  offset="0" style="stop-color:#DE696C"/>
				<stop  offset="0.1" style="stop-color:#DF7366"/>
				<stop  offset="0.49" style="stop-color:#E69953"/>
				<stop  offset="0.81" style="stop-color:#EAAF49"/>
				<stop  offset="1" style="stop-color:#ECB947"/>
			</linearGradient>
			<path class="st37" d="M375.4,308.3c0,0-1.6,2-4.6,2.7c-1,0.2-1.5,3.5-1.7,7.7c-0.5,8.6,0.2,21.4,1,22.2c2.5,2.8,17,1.9,20.7-3.4
				C392.7,335,381.2,307.1,375.4,308.3z"/>
			<g>
				<linearGradient id="SVGID_16_" gradientUnits="userSpaceOnUse" x1="376.1982" y1="296.3582" x2="391.5638" y2="296.3582">
					<stop  offset="0" style="stop-color:#DE696C"/>
					<stop  offset="0.1" style="stop-color:#DF7366"/>
					<stop  offset="0.49" style="stop-color:#E69953"/>
					<stop  offset="0.81" style="stop-color:#EAAF49"/>
					<stop  offset="1" style="stop-color:#ECB947"/>
				</linearGradient>
				<path class="st38" d="M377.9,314.3c4.4,2.3,12.6-9.6,13.5-18.1c0.9-8.5-2-17.4-2.7-17.8c-1.3-0.8-4.9-0.1-5.5,1.7
					c-0.5,1.8,1.9,10.8,1.1,14.8C382.7,302,372.2,311.4,377.9,314.3z"/>
				<path class="st27" d="M388.3,280.2c0,0-2.6-7.2-3.9-6.8c-1.4,0.4,0,8,0,8S386.4,281.7,388.3,280.2z"/>
			</g>
			<path class="st3" d="M378.9,298c-1.5,0-0.8-8.1-0.8-8.1s-1.2,0.3-3.8-1.7c0,0,1.9,3.1-1.1,1.8c-3-1.3-6-5.5-6-5.5
				s-6.4,5.2-10.4-0.9c-3.9-6.1,7.4-4,7.4-4s10.7-2.8,16.2,2C385.8,286.3,381.6,298,378.9,298z"/>
			<g>
				<path class="st27" d="M378.9,296.3c0,0,2.1-2.1,3.7-0.7c1.3,1.2-0.4,6.2-4.7,5.3L378.9,296.3z"/>
				<path class="st28" d="M382.4,296.7c-0.8,0.2-1.5,0.5-2.1,1c-0.6,0.5-1.1,1.1-1.7,1.7c0-0.2,0.1-0.4,0.1-0.6
					c0.1-0.2,0.2-0.4,0.3-0.6c0.2-0.4,0.5-0.7,0.8-1c0.4-0.3,0.8-0.5,1.2-0.6C381.5,296.5,382,296.5,382.4,296.7z"/>
			</g>
		</g>
		<g>
			<ellipse class="st1" cx="98.7" cy="349.3" rx="46.9" ry="7.6"/>
			<g>
				<path class="st15" d="M98.7,346.2c0,0-8.9,6-9.4,4.8c-0.5-1.2,4.7-6.1,4.7-6.1L98.7,346.2z"/>
				<path class="st14" d="M97.3,333.7c0,0-20.4-6-27.7-4c-8.7,2.4-10.7,14.8-0.9,19.8s29.7-3.2,29.7-3.2s18.4,6.4,26.6,2.7
					c6.8-3,10.4-13.7,3.3-18.9C119.8,323.8,97.3,333.7,97.3,333.7z"/>
				<linearGradient id="SVGID_17_" gradientUnits="userSpaceOnUse" x1="82.7106" y1="317.7706" x2="111.748" y2="317.7706">
					<stop  offset="0" style="stop-color:#DE696C"/>
					<stop  offset="1" style="stop-color:#E697CB"/>
				</linearGradient>
				<path class="st39" d="M111.7,331.6c0.2,2.6-10.6,5.3-14.5,5.3c-4,0-14.7-2.7-14.5-5.3c1.3-14.6,5-25.5,8.9-30.4
					c1.8-2.2,4.5-2.5,5.5-2.6h0h0c1.1,0,3.8,0.4,5.5,2.6C106.8,306.1,110.5,317,111.7,331.6z"/>
				<g>
					<path class="st14" d="M97,271.2c-6.1,0-8.1-6.7-5.8-8.4c2.2-1.8,5.3,0.6,5.8,0.6c0.5,0,3.6-2.4,5.8-0.6
						C105,264.5,103.1,271.2,97,271.2z"/>
					<path class="st12" d="M100.7,270.7c0,0.9-1.7,1.6-3.7,1.6c-2,0-3.7-0.7-3.7-1.6c0-0.9,1.7-1.6,3.7-1.6
						C99,269.1,100.7,269.8,100.7,270.7z"/>
				</g>
				<path class="st27" d="M100.4,299.8c0,0-1.6,1.5-3.1,1.5c-1.6,0-3.1-1.5-3.1-1.5s0.7-1,1.2-1.5c0,0,0.1-0.1,0.1-0.2
					c0.3-1.2-0.1-7-0.1-7h3.9c0,0-0.4,6.1-0.1,7.1c0,0,0,0.1,0.1,0.1C99.7,298.8,100.4,299.8,100.4,299.8z"/>
				<path class="st28" d="M99.2,298.2c-1.6,0.8-2.9,0.4-3.8-0.1c0.3-1.2-0.1-7-0.1-7h3.9C99.2,291.2,98.8,297.3,99.2,298.2z"/>
				<path class="st27" d="M108,284.2c-0.3,7-4.4,12.7-10.7,12.7s-10.5-5.7-10.7-12.7c-0.3-7,3.3-13.2,10.7-13.5
					C104.7,271,108.3,277.2,108,284.2z"/>
				<g>
					<path class="st27" d="M87.9,286.2c0,0-1.9-2.3-3.6-1c-1.4,1-0.2,6.2,4.2,5.7L87.9,286.2z"/>
					<path class="st28" d="M84.4,286.2c0.4-0.1,0.9-0.1,1.3,0c0.4,0.1,0.8,0.4,1.1,0.7c0.3,0.3,0.6,0.7,0.7,1.1
						c0.1,0.2,0.1,0.4,0.2,0.6c0,0.2,0.1,0.4,0.1,0.6c-0.5-0.7-1-1.3-1.5-1.8C85.8,286.9,85.2,286.5,84.4,286.2z"/>
				</g>
				<g>
					<path class="st27" d="M106.5,286.2c0,0,1.9-2.3,3.6-1c1.4,1,0.2,6.2-4.2,5.7L106.5,286.2z"/>
					<path class="st28" d="M110,286.2c-0.8,0.3-1.4,0.7-2,1.2c-0.5,0.5-1,1.2-1.5,1.8c0-0.2,0.1-0.4,0.1-0.6
						c0.1-0.2,0.1-0.4,0.2-0.6c0.2-0.4,0.4-0.8,0.7-1.1c0.3-0.3,0.7-0.6,1.1-0.7C109.1,286.1,109.6,286.1,110,286.2z"/>
				</g>
				<path class="st14" d="M86.5,286.2c0.6,0.3,1.4-6.1,1.4-6.1s8.2-4.7,19,0c0,0,0.1,6.1,0.9,6.1c0.8,0,3.1-16.1-10.7-16.1
					S86,286,86.5,286.2z"/>
				<linearGradient id="SVGID_18_" gradientUnits="userSpaceOnUse" x1="70.7363" y1="317.2672" x2="95.069" y2="317.2672">
					<stop  offset="0" style="stop-color:#DE696C"/>
					<stop  offset="1" style="stop-color:#E697CB"/>
				</linearGradient>
				<path class="st40" d="M94.1,299.8c-3.5-2.6-23.3,14.8-23.4,20.4s14.4,15.7,19.6,14.8c5.1-0.9,6-9.1,3-11
					c-3-1.9-10.4-3.7-10.4-4.3C82.8,319.2,96.5,301.6,94.1,299.8z"/>
				<linearGradient id="SVGID_19_" gradientUnits="userSpaceOnUse" x1="99.5815" y1="317.2672" x2="123.9143" y2="317.2672">
					<stop  offset="0" style="stop-color:#DE696C"/>
					<stop  offset="1" style="stop-color:#E697CB"/>
				</linearGradient>
				<path class="st41" d="M100.5,299.8c3.5-2.6,23.3,14.8,23.4,20.4s-14.4,15.7-19.6,14.8c-5.1-0.9-6-9.1-3-11
					c3-1.9,10.4-3.7,10.4-4.3C111.8,319.2,98.1,301.6,100.5,299.8z"/>
				<path class="st27" d="M89.4,332.1c0,0,7.6,0.5,7.8-0.9c0.2-1.4-7.4-3.2-7.4-3.2S88.8,329.8,89.4,332.1z"/>
				<path class="st27" d="M106.3,332.1c0,0-7.6,0.5-7.8-0.9c-0.2-1.4,7.4-3.2,7.4-3.2S106.9,329.8,106.3,332.1z"/>
				<g>
					<rect x="82.3" y="317.8" class="st16" width="29.9" height="19.1"/>
					<path class="st14" d="M99.8,327.3c0,1.4-1.1,2.5-2.5,2.5s-2.5-1.1-2.5-2.5c0-1.4,1.1-2.5,2.5-2.5S99.8,325.9,99.8,327.3z"/>
				</g>
				<path class="st15" d="M99.6,340.6l1.2,3.4c0,0,9.4-1.1,8.9-2.6C109,339.9,99.6,340.6,99.6,340.6z"/>
				<path class="st16" d="M98.5,346.3l2.4-1.4l-0.1,0.1c-0.2-1-0.5-1.9-0.9-2.8c-0.4-0.9-0.9-1.8-1.6-2.4l0.1,0.1
					c-2-0.3-4.1-0.5-6.1-0.6c-2-0.2-4.1-0.3-6.1-0.4c-2-0.1-4.1-0.2-6.1-0.1c-2,0.1-4.1,0.1-6.1,0.5c2-0.6,4-0.8,6.1-0.9
					c2.1-0.1,4.1-0.1,6.2-0.1c2.1,0.1,4.1,0.2,6.2,0.4c2,0.2,4.1,0.4,6.1,0.8l0.1,0l0,0c0.8,0.7,1.3,1.7,1.7,2.6
					c0.4,1,0.6,1.9,0.8,3l0,0.1l-0.1,0L98.5,346.3z"/>
				<path class="st16" d="M103,340.5c3.3-1.2,6.6-2.1,10-2.8c1.7-0.3,3.4-0.6,5.2-0.8c1.7-0.2,3.5-0.3,5.2,0.1
					c-1.7-0.1-3.4,0.2-5.1,0.4c-1.7,0.3-3.4,0.6-5.1,1L103,340.5z"/>
			</g>
		</g>
	</g>
</g>
</svg>
